{
.appVersion = "1218";
copyright = "Copyright 2018 Google Inc. All Rights Reserved.";
customParameters = (
{
name = glyphOrder;
value = (
.notdef,
NULL,
CR,
space,
nbspace,
dottedCircle,
ka_ahom,
kha_ahom,
nga_ahom,
na_ahom,
ta_ahom,
alt_ta_ahom,
pa_ahom,
pha_ahom,
ba_ahom,
ma_ahom,
ja_ahom,
cha_ahom,
tha_ahom,
ra_ahom,
la_ahom,
sa_ahom,
nya_ahom,
ha_ahom,
a_ahom,
da_ahom,
dha_ahom,
ga_ahom,
ga_ahom.alt,
alt_ga_ahom,
gha_ahom,
bha_ahom,
jha_ahom,
jha_ahom.alt,
alt_ba_ahom,
medialLa_ahom,
medialLa_ahom.sm,
medialRa_ahom,
medialRa_ahom.sm,
medialRa_ahom.desc,
medialLigaRa_ahom,
aSign_ahom,
aaSign_ahom,
iSign_ahom,
iiSign_ahom,
uSign_ahom,
uuSign_ahom,
eSign_ahom,
awSign_ahom,
oSign_ahom,
aiSign_ahom,
amSign_ahom,
virama_ahom,
zero_ahom,
one_ahom,
two_ahom,
three_ahom,
three_ahom.alt,
four_ahom,
four_ahom.alt,
five_ahom,
six_ahom,
seven_ahom,
eight_ahom,
nine_ahom,
ten_ahom,
twenty_ahom,
smallSectionSign_ahom,
sectionSign_ahom,
rulaiSign_ahom,
viSymbol_ahom,
t_ja_ahom,
i_u_ahom,
o_u_ahom,
khra_ahom,
phra_ahom
);
},
{
name = description;
value = "Designed by Monotype design team.";
},
{
name = license;
value = "This Font Software is licensed under the SIL Open Font License, Version 1.1. This Font Software is distributed on an \"AS IS\" BASIS, WITHOUT WARRANTIES OR CONDITIONS OF ANY KIND, either express or implied. See the SIL Open Font License for the specific language, permissions and limitations governing your use of this Font Software.";
},
{
name = licenseURL;
value = "http://scripts.sil.org/OFL";
},
{
name = vendorID;
value = GOOG;
},
{
name = unicodeRanges;
value = (
0,
1,
45,
57
);
},
{
name = trademark;
value = "Noto is a trademark of Google Inc.";
},
{
name = "Has WWS Names";
value = 1;
},
{
name = versionString;
value = "Version 2.002";
},
{
name = fsType;
value = (
);
},
{
name = codePageRanges;
value = (
1252
);
},
{
name = "Don't use Production Names";
value = 1;
}
);
date = "2015-01-16 16:27:17 +0000";
designer = "Monotype Design Team";

glyphs = (
{
glyphname = .notdef;
lastChange = "2019-03-13 13:49:46 +0000";
layers = (
{
layerId = UUID0;
paths = (
{
closed = 1;
nodes = (
"506 0 LINE",
"506 714 LINE",
"95 714 LINE",
"95 0 LINE"
);
},
{
closed = 1;
nodes = (
"146 663 LINE",
"455 663 LINE",
"455 51 LINE",
"146 51 LINE"
);
}
);
width = 600;
}
);
category = Letter;
},
{
glyphname = dottedCircle;
lastChange = "2019-03-13 13:52:43 +0000";
layers = (
{
layerId = UUID0;
paths = (
{
closed = 1;
nodes = (
"469 423 OFFCURVE",
"481 435 OFFCURVE",
"481 449 CURVE SMOOTH",
"481 463 OFFCURVE",
"469 475 OFFCURVE",
"455 475 CURVE SMOOTH",
"441 475 OFFCURVE",
"429 463 OFFCURVE",
"429 449 CURVE SMOOTH",
"429 435 OFFCURVE",
"441 423 OFFCURVE",
"455 423 CURVE SMOOTH"
);
},
{
closed = 1;
nodes = (
"153 107 OFFCURVE",
"165 119 OFFCURVE",
"165 133 CURVE SMOOTH",
"165 147 OFFCURVE",
"153 159 OFFCURVE",
"139 159 CURVE SMOOTH",
"125 159 OFFCURVE",
"113 147 OFFCURVE",
"113 133 CURVE SMOOTH",
"113 119 OFFCURVE",
"125 107 OFFCURVE",
"139 107 CURVE SMOOTH"
);
},
{
closed = 1;
nodes = (
"227 60 OFFCURVE",
"239 72 OFFCURVE",
"239 86 CURVE SMOOTH",
"239 100 OFFCURVE",
"227 112 OFFCURVE",
"213 112 CURVE SMOOTH",
"199 112 OFFCURVE",
"187 100 OFFCURVE",
"187 86 CURVE SMOOTH",
"187 72 OFFCURVE",
"199 60 OFFCURVE",
"213 60 CURVE SMOOTH"
);
},
{
closed = 1;
nodes = (
"106 181 OFFCURVE",
"118 193 OFFCURVE",
"118 207 CURVE SMOOTH",
"118 221 OFFCURVE",
"106 233 OFFCURVE",
"92 233 CURVE SMOOTH",
"78 233 OFFCURVE",
"66 221 OFFCURVE",
"66 207 CURVE SMOOTH",
"66 193 OFFCURVE",
"78 181 OFFCURVE",
"92 181 CURVE SMOOTH"
);
},
{
closed = 1;
nodes = (
"311 42 OFFCURVE",
"323 54 OFFCURVE",
"323 68 CURVE SMOOTH",
"323 82 OFFCURVE",
"311 94 OFFCURVE",
"297 94 CURVE SMOOTH",
"283 94 OFFCURVE",
"271 82 OFFCURVE",
"271 68 CURVE SMOOTH",
"271 54 OFFCURVE",
"283 42 OFFCURVE",
"297 42 CURVE SMOOTH"
);
},
{
closed = 1;
nodes = (
"88 265 OFFCURVE",
"100 277 OFFCURVE",
"100 291 CURVE SMOOTH",
"100 305 OFFCURVE",
"88 317 OFFCURVE",
"74 317 CURVE SMOOTH",
"60 317 OFFCURVE",
"48 305 OFFCURVE",
"48 291 CURVE SMOOTH",
"48 277 OFFCURVE",
"60 265 OFFCURVE",
"74 265 CURVE SMOOTH"
);
},
{
closed = 1;
nodes = (
"395 60 OFFCURVE",
"407 72 OFFCURVE",
"407 86 CURVE SMOOTH",
"407 100 OFFCURVE",
"395 112 OFFCURVE",
"381 112 CURVE SMOOTH",
"367 112 OFFCURVE",
"355 100 OFFCURVE",
"355 86 CURVE SMOOTH",
"355 72 OFFCURVE",
"367 60 OFFCURVE",
"381 60 CURVE SMOOTH"
);
},
{
closed = 1;
nodes = (
"106 349 OFFCURVE",
"118 361 OFFCURVE",
"118 375 CURVE SMOOTH",
"118 389 OFFCURVE",
"106 401 OFFCURVE",
"92 401 CURVE SMOOTH",
"78 401 OFFCURVE",
"66 389 OFFCURVE",
"66 375 CURVE SMOOTH",
"66 361 OFFCURVE",
"78 349 OFFCURVE",
"92 349 CURVE SMOOTH"
);
},
{
closed = 1;
nodes = (
"153 423 OFFCURVE",
"165 435 OFFCURVE",
"165 449 CURVE SMOOTH",
"165 463 OFFCURVE",
"153 475 OFFCURVE",
"139 475 CURVE SMOOTH",
"125 475 OFFCURVE",
"113 463 OFFCURVE",
"113 449 CURVE SMOOTH",
"113 435 OFFCURVE",
"125 423 OFFCURVE",
"139 423 CURVE SMOOTH"
);
},
{
closed = 1;
nodes = (
"469 107 OFFCURVE",
"481 119 OFFCURVE",
"481 133 CURVE SMOOTH",
"481 147 OFFCURVE",
"469 159 OFFCURVE",
"455 159 CURVE SMOOTH",
"441 159 OFFCURVE",
"429 147 OFFCURVE",
"429 133 CURVE SMOOTH",
"429 119 OFFCURVE",
"441 107 OFFCURVE",
"455 107 CURVE SMOOTH"
);
},
{
closed = 1;
nodes = (
"227 470 OFFCURVE",
"239 482 OFFCURVE",
"239 496 CURVE SMOOTH",
"239 510 OFFCURVE",
"227 522 OFFCURVE",
"213 522 CURVE SMOOTH",
"199 522 OFFCURVE",
"187 510 OFFCURVE",
"187 496 CURVE SMOOTH",
"187 482 OFFCURVE",
"199 470 OFFCURVE",
"213 470 CURVE SMOOTH"
);
},
{
closed = 1;
nodes = (
"516 181 OFFCURVE",
"528 193 OFFCURVE",
"528 207 CURVE SMOOTH",
"528 221 OFFCURVE",
"516 233 OFFCURVE",
"502 233 CURVE SMOOTH",
"488 233 OFFCURVE",
"476 221 OFFCURVE",
"476 207 CURVE SMOOTH",
"476 193 OFFCURVE",
"488 181 OFFCURVE",
"502 181 CURVE SMOOTH"
);
},
{
closed = 1;
nodes = (
"311 488 OFFCURVE",
"323 500 OFFCURVE",
"323 514 CURVE SMOOTH",
"323 528 OFFCURVE",
"311 540 OFFCURVE",
"297 540 CURVE SMOOTH",
"283 540 OFFCURVE",
"271 528 OFFCURVE",
"271 514 CURVE SMOOTH",
"271 500 OFFCURVE",
"283 488 OFFCURVE",
"297 488 CURVE SMOOTH"
);
},
{
closed = 1;
nodes = (
"534 265 OFFCURVE",
"546 277 OFFCURVE",
"546 291 CURVE SMOOTH",
"546 305 OFFCURVE",
"534 317 OFFCURVE",
"520 317 CURVE SMOOTH",
"506 317 OFFCURVE",
"494 305 OFFCURVE",
"494 291 CURVE SMOOTH",
"494 277 OFFCURVE",
"506 265 OFFCURVE",
"520 265 CURVE SMOOTH"
);
},
{
closed = 1;
nodes = (
"395 470 OFFCURVE",
"407 482 OFFCURVE",
"407 496 CURVE SMOOTH",
"407 510 OFFCURVE",
"395 522 OFFCURVE",
"381 522 CURVE SMOOTH",
"367 522 OFFCURVE",
"355 510 OFFCURVE",
"355 496 CURVE SMOOTH",
"355 482 OFFCURVE",
"367 470 OFFCURVE",
"381 470 CURVE SMOOTH"
);
},
{
closed = 1;
nodes = (
"516 349 OFFCURVE",
"528 361 OFFCURVE",
"528 375 CURVE SMOOTH",
"528 389 OFFCURVE",
"516 401 OFFCURVE",
"502 401 CURVE SMOOTH",
"488 401 OFFCURVE",
"476 389 OFFCURVE",
"476 375 CURVE SMOOTH",
"476 361 OFFCURVE",
"488 349 OFFCURVE",
"502 349 CURVE SMOOTH"
);
}
);
width = 594;
}
);
unicode = 25CC;
category = Letter;
},
{
glyphname = ka_ahom;
lastChange = "2019-03-13 13:52:43 +0000";
layers = (
{
layerId = UUID0;
paths = (
{
closed = 1;
nodes = (
"204 -10 OFFCURVE",
"224 -2 OFFCURVE",
"224 15 CURVE SMOOTH",
"224 354 LINE SMOOTH",
"224 356 OFFCURVE",
"224 359 OFFCURVE",
"223 362 CURVE",
"272 425 OFFCURVE",
"337 478 OFFCURVE",
"373 478 CURVE SMOOTH",
"417 478 OFFCURVE",
"434 447 OFFCURVE",
"434 353 CURVE SMOOTH",
"434 15 LINE SMOOTH",
"434 -2 OFFCURVE",
"456 -10 OFFCURVE",
"479 -10 CURVE SMOOTH",
"501 -10 OFFCURVE",
"524 -2 OFFCURVE",
"524 15 CURVE SMOOTH",
"524 362 LINE",
"573 425 OFFCURVE",
"637 478 OFFCURVE",
"673 478 CURVE SMOOTH",
"717 478 OFFCURVE",
"734 447 OFFCURVE",
"734 353 CURVE SMOOTH",
"734 15 LINE SMOOTH",
"734 -2 OFFCURVE",
"757 -10 OFFCURVE",
"781 -10 CURVE SMOOTH",
"802 -10 OFFCURVE",
"824 -2 OFFCURVE",
"824 15 CURVE SMOOTH",
"824 377 LINE SMOOTH",
"824 529 OFFCURVE",
"772 560 OFFCURVE",
"710 560 CURVE SMOOTH",
"647 560 OFFCURVE",
"570 497 OFFCURVE",
"520 442 CURVE",
"506 538 OFFCURVE",
"462 560 OFFCURVE",
"410 560 CURVE SMOOTH",
"341 560 OFFCURVE",
"256 485 OFFCURVE",
"206 427 CURVE",
"187 491 OFFCURVE",
"126 560 OFFCURVE",
"66 560 CURVE SMOOTH",
"45 560 OFFCURVE",
"20 523 OFFCURVE",
"20 499 CURVE SMOOTH",
"20 487 OFFCURVE",
"26 481 OFFCURVE",
"36 477 CURVE SMOOTH",
"93 454 OFFCURVE",
"134 410 OFFCURVE",
"134 336 CURVE SMOOTH",
"134 15 LINE SMOOTH",
"134 -2 OFFCURVE",
"159 -10 OFFCURVE",
"180 -10 CURVE SMOOTH"
);
}
);
width = 944;
}
);
unicode = 11700;
category = Letter;
},
{
glyphname = kha_ahom;
lastChange = "2019-03-13 13:52:43 +0000";
layers = (
{
layerId = UUID0;
paths = (
{
closed = 1;
nodes = (
"204 -10 OFFCURVE",
"224 -2 OFFCURVE",
"224 15 CURVE SMOOTH",
"224 170 LINE",
"355 371 OFFCURVE",
"473 426 OFFCURVE",
"547 426 CURVE SMOOTH",
"626 426 OFFCURVE",
"687 390 OFFCURVE",
"687 277 CURVE SMOOTH",
"687 154 OFFCURVE",
"618 98 OFFCURVE",
"561 98 CURVE SMOOTH",
"524 98 OFFCURVE",
"518 124 OFFCURVE",
"513 150 CURVE SMOOTH",
"507 179 OFFCURVE",
"500 208 OFFCURVE",
"454 208 CURVE SMOOTH",
"424 208 OFFCURVE",
"395 181 OFFCURVE",
"395 143 CURVE SMOOTH",
"395 72 OFFCURVE",
"479 34 OFFCURVE",
"552 34 CURVE SMOOTH",
"670 34 OFFCURVE",
"781 113 OFFCURVE",
"781 280 CURVE SMOOTH",
"781 428 OFFCURVE",
"688 508 OFFCURVE",
"561 508 CURVE SMOOTH",
"433 508 OFFCURVE",
"316 395 OFFCURVE",
"224 267 CURVE",
"224 395 LINE SMOOTH",
"224 507 OFFCURVE",
"151 560 OFFCURVE",
"73 560 CURVE SMOOTH",
"38 560 OFFCURVE",
"20 523 OFFCURVE",
"20 499 CURVE SMOOTH",
"20 487 OFFCURVE",
"25 477 OFFCURVE",
"36 477 CURVE SMOOTH",
"53 477 LINE SMOOTH",
"94 477 OFFCURVE",
"134 456 OFFCURVE",
"134 383 CURVE SMOOTH",
"134 15 LINE SMOOTH",
"134 -4 OFFCURVE",
"159 -10 OFFCURVE",
"180 -10 CURVE SMOOTH"
);
}
);
width = 861;
}
);
unicode = 11701;
category = Letter;
},
{
glyphname = nga_ahom;
lastChange = "2019-03-13 13:52:43 +0000";
layers = (
{
layerId = UUID0;
paths = (
{
closed = 1;
nodes = (
"379 -14 OFFCURVE",
"510 114 OFFCURVE",
"510 220 CURVE SMOOTH",
"510 260 OFFCURVE",
"491 314 OFFCURVE",
"423 314 CURVE SMOOTH",
"379 314 OFFCURVE",
"356 275 OFFCURVE",
"356 251 CURVE SMOOTH",
"356 217 OFFCURVE",
"376 206 OFFCURVE",
"394 196 CURVE SMOOTH",
"409 188 OFFCURVE",
"423 179 OFFCURVE",
"423 164 CURVE SMOOTH",
"423 114 OFFCURVE",
"355 38 OFFCURVE",
"276 38 CURVE SMOOTH",
"260 38 OFFCURVE",
"224 49 OFFCURVE",
"224 96 CURVE SMOOTH",
"224 328 LINE",
"365 361 OFFCURVE",
"461 474 OFFCURVE",
"461 592 CURVE SMOOTH",
"461 620 OFFCURVE",
"452 635 OFFCURVE",
"434 635 CURVE SMOOTH",
"422 635 OFFCURVE",
"413 628 OFFCURVE",
"411 610 CURVE SMOOTH",
"402 519 OFFCURVE",
"318 439 OFFCURVE",
"224 407 CURVE",
"223 459 OFFCURVE",
"178 560 OFFCURVE",
"73 560 CURVE SMOOTH",
"38 560 OFFCURVE",
"20 523 OFFCURVE",
"20 499 CURVE SMOOTH",
"20 487 OFFCURVE",
"25 477 OFFCURVE",
"36 477 CURVE SMOOTH",
"53 477 LINE SMOOTH",
"128 477 OFFCURVE",
"134 397 OFFCURVE",
"134 383 CURVE SMOOTH",
"134 105 LINE SMOOTH",
"134 18 OFFCURVE",
"184 -14 OFFCURVE",
"249 -14 CURVE SMOOTH"
);
}
);
width = 610;
}
);
unicode = 11702;
category = Letter;
},
{
glyphname = na_ahom;
lastChange = "2019-03-13 13:52:43 +0000";
layers = (
{
guideLines = (
{
angle = 90;
position = "{921, 656}";
}
);
layerId = UUID0;
paths = (
{
closed = 1;
nodes = (
"510 -24 OFFCURVE",
"528 -17 OFFCURVE",
"528 1 CURVE SMOOTH",
"528 213 LINE SMOOTH",
"528 229 OFFCURVE",
"518 248 OFFCURVE",
"498 248 CURVE SMOOTH",
"481 248 OFFCURVE",
"451 231 OFFCURVE",
"424 214 CURVE SMOOTH",
"210 81 LINE",
"210 362 LINE",
"267 413 OFFCURVE",
"357 471 OFFCURVE",
"392 471 CURVE SMOOTH",
"425 471 OFFCURVE",
"430 454 OFFCURVE",
"435 436 CURVE SMOOTH",
"440 418 OFFCURVE",
"453 399 OFFCURVE",
"487 399 CURVE SMOOTH",
"521 399 OFFCURVE",
"548 421 OFFCURVE",
"548 476 CURVE SMOOTH",
"548 526 OFFCURVE",
"518 560 OFFCURVE",
"456 560 CURVE SMOOTH",
"394 560 OFFCURVE",
"286 488 OFFCURVE",
"210 425 CURVE",
"210 525 LINE SMOOTH",
"210 542 OFFCURVE",
"190 550 OFFCURVE",
"166 550 CURVE SMOOTH",
"145 550 OFFCURVE",
"120 544 OFFCURVE",
"120 525 CURVE SMOOTH",
"120 19 LINE SMOOTH",
"120 1 OFFCURVE",
"126 -10 OFFCURVE",
"148 -10 CURVE SMOOTH",
"174 -10 OFFCURVE",
"232 26 OFFCURVE",
"261 44 CURVE SMOOTH",
"438 156 LINE",
"438 1 LINE SMOOTH",
"438 -16 OFFCURVE",
"455 -24 OFFCURVE",
"481 -24 CURVE SMOOTH"
);
}
);
width = 648;
}
);
unicode = 11703;
category = Letter;
},
{
glyphname = ta_ahom;
lastChange = "2019-03-13 13:52:43 +0000";
layers = (
{
layerId = UUID0;
paths = (
{
closed = 1;
nodes = (
"336 -14 OFFCURVE",
"404 97 OFFCURVE",
"433 208 CURVE",
"429 218 LINE",
"443 66 LINE SMOOTH",
"448 11 OFFCURVE",
"471 10 OFFCURVE",
"491 10 CURVE SMOOTH",
"503 10 OFFCURVE",
"522 20 OFFCURVE",
"532 46 CURVE SMOOTH",
"617 265 LINE SMOOTH",
"649 346 OFFCURVE",
"661 374 OFFCURVE",
"671 374 CURVE SMOOTH",
"681 374 OFFCURVE",
"686 353 OFFCURVE",
"695 310 CURVE SMOOTH",
"756 33 LINE SMOOTH",
"764 -3 OFFCURVE",
"785 -10 OFFCURVE",
"809 -10 CURVE SMOOTH",
"845 -10 OFFCURVE",
"852 8 OFFCURVE",
"852 22 CURVE SMOOTH",
"852 30 OFFCURVE",
"849 45 OFFCURVE",
"846 59 CURVE SMOOTH",
"766 438 LINE SMOOTH",
"743 548 OFFCURVE",
"730 560 OFFCURVE",
"707 560 CURVE SMOOTH",
"686 560 OFFCURVE",
"662 531 OFFCURVE",
"633 458 CURVE SMOOTH",
"508 148 LINE",
"518 146 LINE",
"499 313 LINE SMOOTH",
"483 453 OFFCURVE",
"457 560 OFFCURVE",
"334 560 CURVE SMOOTH",
"210 560 OFFCURVE",
"60 364 OFFCURVE",
"60 169 CURVE SMOOTH",
"60 33 OFFCURVE",
"133 -14 OFFCURVE",
"213 -14 CURVE SMOOTH"
);
},
{
closed = 1;
nodes = (
"177 68 OFFCURVE",
"154 124 OFFCURVE",
"154 196 CURVE SMOOTH",
"154 382 OFFCURVE",
"229 483 OFFCURVE",
"319 483 CURVE SMOOTH",
"367 483 OFFCURVE",
"400 450 OFFCURVE",
"409 357 CURVE SMOOTH",
"413 317 LINE",
"376 106 OFFCURVE",
"275 68 OFFCURVE",
"234 68 CURVE SMOOTH"
);
}
);
width = 882;
}
);
unicode = 11704;
category = Letter;
},
{
glyphname = alt_ta_ahom;
lastChange = "2019-03-13 13:52:43 +0000";
layers = (
{
layerId = UUID0;
paths = (
{
closed = 1;
nodes = (
"336 -14 OFFCURVE",
"404 97 OFFCURVE",
"433 208 CURVE",
"429 218 LINE",
"443 66 LINE SMOOTH",
"448 11 OFFCURVE",
"471 10 OFFCURVE",
"491 10 CURVE SMOOTH",
"506 10 OFFCURVE",
"534 23 OFFCURVE",
"534 67 CURVE SMOOTH",
"534 80 OFFCURVE",
"532 93 OFFCURVE",
"529 107 CURVE SMOOTH",
"526 123 OFFCURVE",
"524 140 OFFCURVE",
"524 158 CURVE SMOOTH",
"524 243 OFFCURVE",
"559 329 OFFCURVE",
"625 381 CURVE SMOOTH",
"634 388 OFFCURVE",
"637 398 OFFCURVE",
"637 405 CURVE SMOOTH",
"637 417 OFFCURVE",
"630 427 OFFCURVE",
"619 427 CURVE SMOOTH",
"609 427 OFFCURVE",
"595 421 OFFCURVE",
"578 409 CURVE SMOOTH",
"546 387 OFFCURVE",
"519 359 OFFCURVE",
"497 327 CURVE",
"476 460 OFFCURVE",
"452 560 OFFCURVE",
"334 560 CURVE SMOOTH",
"210 560 OFFCURVE",
"60 364 OFFCURVE",
"60 169 CURVE SMOOTH",
"60 33 OFFCURVE",
"133 -14 OFFCURVE",
"213 -14 CURVE SMOOTH"
);
},
{
closed = 1;
nodes = (
"177 68 OFFCURVE",
"154 124 OFFCURVE",
"154 196 CURVE SMOOTH",
"154 382 OFFCURVE",
"229 483 OFFCURVE",
"319 483 CURVE SMOOTH",
"367 483 OFFCURVE",
"400 450 OFFCURVE",
"409 357 CURVE SMOOTH",
"413 317 LINE",
"376 106 OFFCURVE",
"275 68 OFFCURVE",
"234 68 CURVE SMOOTH"
);
}
);
width = 667;
}
);
unicode = 11705;
category = Letter;
},
{
glyphname = pa_ahom;
lastChange = "2019-03-13 13:52:43 +0000";
layers = (
{
layerId = UUID0;
paths = (
{
closed = 1;
nodes = (
"433 -14 OFFCURVE",
"583 143 OFFCURVE",
"583 345 CURVE SMOOTH",
"583 502 OFFCURVE",
"504 560 OFFCURVE",
"432 560 CURVE SMOOTH",
"396 560 OFFCURVE",
"372 536 OFFCURVE",
"372 504 CURVE SMOOTH",
"372 460 OFFCURVE",
"400 445 OFFCURVE",
"431 431 CURVE SMOOTH",
"466 415 OFFCURVE",
"504 395 OFFCURVE",
"504 324 CURVE SMOOTH",
"504 176 OFFCURVE",
"425 48 OFFCURVE",
"317 48 CURVE SMOOTH",
"239 48 OFFCURVE",
"224 90 OFFCURVE",
"224 155 CURVE SMOOTH",
"224 405 LINE SMOOTH",
"224 457 OFFCURVE",
"180 560 OFFCURVE",
"73 560 CURVE SMOOTH",
"38 560 OFFCURVE",
"20 523 OFFCURVE",
"20 499 CURVE SMOOTH",
"20 487 OFFCURVE",
"25 477 OFFCURVE",
"36 477 CURVE SMOOTH",
"53 477 LINE SMOOTH",
"128 477 OFFCURVE",
"134 397 OFFCURVE",
"134 383 CURVE SMOOTH",
"134 195 LINE SMOOTH",
"134 91 OFFCURVE",
"156 -14 OFFCURVE",
"298 -14 CURVE SMOOTH"
);
}
);
width = 663;
}
);
unicode = 11706;
category = Letter;
},
{
glyphname = pha_ahom;
lastChange = "2019-03-13 13:52:43 +0000";
layers = (
{
layerId = UUID0;
paths = (
{
closed = 1;
nodes = (
"377 -14 OFFCURVE",
"454 35 OFFCURVE",
"508 112 CURVE",
"530 39 OFFCURVE",
"583 -12 OFFCURVE",
"671 -12 CURVE SMOOTH",
"821 -12 OFFCURVE",
"959 161 OFFCURVE",
"959 344 CURVE SMOOTH",
"959 463 OFFCURVE",
"905 560 OFFCURVE",
"784 560 CURVE SMOOTH",
"706 560 OFFCURVE",
"629 512 OFFCURVE",
"575 439 CURVE",
"558 510 OFFCURVE",
"522 560 OFFCURVE",
"486 560 CURVE SMOOTH",
"462 560 OFFCURVE",
"448 545 OFFCURVE",
"448 527 CURVE SMOOTH",
"448 513 OFFCURVE",
"456 500 OFFCURVE",
"468 486 CURVE SMOOTH",
"482 469 OFFCURVE",
"504 429 OFFCURVE",
"504 324 CURVE SMOOTH",
"504 176 OFFCURVE",
"425 48 OFFCURVE",
"317 48 CURVE SMOOTH",
"239 48 OFFCURVE",
"224 90 OFFCURVE",
"224 155 CURVE SMOOTH",
"224 405 LINE SMOOTH",
"224 457 OFFCURVE",
"180 560 OFFCURVE",
"73 560 CURVE SMOOTH",
"38 560 OFFCURVE",
"20 523 OFFCURVE",
"20 499 CURVE SMOOTH",
"20 487 OFFCURVE",
"25 477 OFFCURVE",
"36 477 CURVE SMOOTH",
"53 477 LINE SMOOTH",
"128 477 OFFCURVE",
"134 397 OFFCURVE",
"134 383 CURVE SMOOTH",
"134 195 LINE SMOOTH",
"134 91 OFFCURVE",
"156 -14 OFFCURVE",
"298 -14 CURVE SMOOTH"
);
},
{
closed = 1;
nodes = (
"630 65 OFFCURVE",
"590 122 OFFCURVE",
"590 224 CURVE SMOOTH",
"590 378 OFFCURVE",
"633 480 OFFCURVE",
"748 480 CURVE SMOOTH",
"825 480 OFFCURVE",
"865 426 OFFCURVE",
"865 324 CURVE SMOOTH",
"865 186 OFFCURVE",
"827 65 OFFCURVE",
"700 65 CURVE SMOOTH"
);
}
);
width = 1039;
}
);
unicode = 11707;
category = Letter;
},
{
glyphname = ba_ahom;
lastChange = "2019-03-13 13:52:43 +0000";
layers = (
{
layerId = UUID0;
paths = (
{
closed = 1;
nodes = (
"443 -14 OFFCURVE",
"623 152 OFFCURVE",
"623 364 CURVE SMOOTH",
"623 487 OFFCURVE",
"550 560 OFFCURVE",
"444 560 CURVE SMOOTH",
"339 560 OFFCURVE",
"252 470 OFFCURVE",
"211 372 CURVE",
"217 374 LINE",
"211 445 OFFCURVE",
"144 560 OFFCURVE",
"66 560 CURVE SMOOTH",
"43 560 OFFCURVE",
"20 527 OFFCURVE",
"20 499 CURVE SMOOTH",
"20 487 OFFCURVE",
"26 481 OFFCURVE",
"36 477 CURVE SMOOTH",
"81 458 OFFCURVE",
"134 410 OFFCURVE",
"134 336 CURVE SMOOTH",
"134 195 LINE SMOOTH",
"134 91 OFFCURVE",
"161 -14 OFFCURVE",
"300 -14 CURVE SMOOTH"
);
},
{
closed = 1;
nodes = (
"245 48 OFFCURVE",
"224 82 OFFCURVE",
"224 175 CURVE SMOOTH",
"224 268 LINE",
"265 462 OFFCURVE",
"385 480 OFFCURVE",
"416 480 CURVE SMOOTH",
"497 480 OFFCURVE",
"529 405 OFFCURVE",
"529 352 CURVE SMOOTH",
"529 181 OFFCURVE",
"435 48 OFFCURVE",
"309 48 CURVE SMOOTH"
);
}
);
width = 703;
}
);
unicode = 11708;
category = Letter;
},
{
glyphname = ma_ahom;
lastChange = "2019-03-13 13:52:43 +0000";
layers = (
{
layerId = UUID0;
paths = (
{
closed = 1;
nodes = (
"433 -14 OFFCURVE",
"583 143 OFFCURVE",
"583 345 CURVE SMOOTH",
"583 502 OFFCURVE",
"504 560 OFFCURVE",
"432 560 CURVE SMOOTH",
"396 560 OFFCURVE",
"372 536 OFFCURVE",
"372 505 CURVE SMOOTH",
"372 460 OFFCURVE",
"401 446 OFFCURVE",
"432 431 CURVE SMOOTH",
"467 414 OFFCURVE",
"504 395 OFFCURVE",
"504 324 CURVE SMOOTH",
"504 316 LINE",
"224 316 LINE",
"224 405 LINE SMOOTH",
"224 457 OFFCURVE",
"180 560 OFFCURVE",
"73 560 CURVE SMOOTH",
"38 560 OFFCURVE",
"20 523 OFFCURVE",
"20 499 CURVE SMOOTH",
"20 487 OFFCURVE",
"25 477 OFFCURVE",
"36 477 CURVE SMOOTH",
"53 477 LINE SMOOTH",
"128 477 OFFCURVE",
"134 397 OFFCURVE",
"134 383 CURVE SMOOTH",
"134 195 LINE SMOOTH",
"134 91 OFFCURVE",
"156 -14 OFFCURVE",
"298 -14 CURVE SMOOTH"
);
},
{
closed = 1;
nodes = (
"239 48 OFFCURVE",
"224 90 OFFCURVE",
"224 155 CURVE SMOOTH",
"224 264 LINE",
"499 264 LINE",
"481 143 OFFCURVE",
"410 48 OFFCURVE",
"317 48 CURVE SMOOTH"
);
}
);
width = 663;
}
);
unicode = 11709;
category = Letter;
},
{
glyphname = ja_ahom;
lastChange = "2019-03-13 13:52:43 +0000";
layers = (
{
layerId = UUID0;
paths = (
{
closed = 1;
nodes = (
"370 -14 OFFCURVE",
"435 13 OFFCURVE",
"468 72 CURVE",
"455 71 LINE",
"472 22 OFFCURVE",
"519 -14 OFFCURVE",
"588 -14 CURVE SMOOTH",
"723 -14 OFFCURVE",
"873 143 OFFCURVE",
"873 345 CURVE SMOOTH",
"873 502 OFFCURVE",
"796 560 OFFCURVE",
"724 560 CURVE SMOOTH",
"688 560 OFFCURVE",
"662 534 OFFCURVE",
"662 499 CURVE SMOOTH",
"662 460 OFFCURVE",
"690 444 OFFCURVE",
"721 430 CURVE SMOOTH",
"756 414 OFFCURVE",
"794 396 OFFCURVE",
"794 324 CURVE SMOOTH",
"794 176 OFFCURVE",
"715 48 OFFCURVE",
"607 48 CURVE SMOOTH",
"552 48 OFFCURVE",
"524 82 OFFCURVE",
"524 175 CURVE SMOOTH",
"524 535 LINE SMOOTH",
"524 552 OFFCURVE",
"501 560 OFFCURVE",
"479 560 CURVE SMOOTH",
"456 560 OFFCURVE",
"434 552 OFFCURVE",
"434 535 CURVE SMOOTH",
"434 247 LINE SMOOTH",
"434 119 OFFCURVE",
"400 49 OFFCURVE",
"321 49 CURVE SMOOTH",
"264 49 OFFCURVE",
"224 62 OFFCURVE",
"224 219 CURVE SMOOTH",
"224 405 LINE SMOOTH",
"224 457 OFFCURVE",
"180 560 OFFCURVE",
"73 560 CURVE SMOOTH",
"38 560 OFFCURVE",
"20 523 OFFCURVE",
"20 499 CURVE SMOOTH",
"20 487 OFFCURVE",
"25 477 OFFCURVE",
"36 477 CURVE SMOOTH",
"53 477 LINE SMOOTH",
"102 477 OFFCURVE",
"134 441 OFFCURVE",
"134 383 CURVE SMOOTH",
"134 219 LINE SMOOTH",
"134 32 OFFCURVE",
"219 -14 OFFCURVE",
"315 -14 CURVE SMOOTH"
);
}
);
width = 953;
}
);
unicode = 1170A;
category = Letter;
},
{
glyphname = cha_ahom;
lastChange = "2019-03-13 13:52:43 +0000";
layers = (
{
layerId = UUID0;
paths = (
{
closed = 1;
nodes = (
"793 -14 OFFCURVE",
"953 152 OFFCURVE",
"953 364 CURVE SMOOTH",
"953 487 OFFCURVE",
"880 560 OFFCURVE",
"774 560 CURVE SMOOTH",
"683 560 OFFCURVE",
"614 493 OFFCURVE",
"574 410 CURVE",
"574 438 LINE SMOOTH",
"574 542 OFFCURVE",
"546 560 OFFCURVE",
"518 560 CURVE SMOOTH",
"485 560 OFFCURVE",
"443 508 OFFCURVE",
"376 390 CURVE SMOOTH",
"224 122 LINE",
"224 339 LINE SMOOTH",
"224 482 OFFCURVE",
"116 560 OFFCURVE",
"66 560 CURVE SMOOTH",
"45 560 OFFCURVE",
"20 523 OFFCURVE",
"20 499 CURVE SMOOTH",
"20 487 OFFCURVE",
"26 481 OFFCURVE",
"36 477 CURVE SMOOTH",
"87 455 OFFCURVE",
"134 405 OFFCURVE",
"134 326 CURVE SMOOTH",
"134 73 LINE SMOOTH",
"134 4 OFFCURVE",
"159 -10 OFFCURVE",
"180 -10 CURVE SMOOTH",
"201 -10 OFFCURVE",
"216 -2 OFFCURVE",
"229 20 CURVE SMOOTH",
"421 350 LINE SMOOTH",
"451 401 OFFCURVE",
"467 428 OFFCURVE",
"477 428 CURVE SMOOTH",
"484 428 OFFCURVE",
"484 418 OFFCURVE",
"484 374 CURVE SMOOTH",
"484 195 LINE SMOOTH",
"484 91 OFFCURVE",
"511 -14 OFFCURVE",
"650 -14 CURVE SMOOTH"
);
},
{
closed = 1;
nodes = (
"595 48 OFFCURVE",
"574 82 OFFCURVE",
"574 175 CURVE SMOOTH",
"574 253 LINE",
"612 461 OFFCURVE",
"714 480 OFFCURVE",
"746 480 CURVE SMOOTH",
"839 480 OFFCURVE",
"859 405 OFFCURVE",
"859 352 CURVE SMOOTH",
"859 181 OFFCURVE",
"785 48 OFFCURVE",
"659 48 CURVE SMOOTH"
);
}
);
width = 1033;
}
);
unicode = 1170B;
category = Letter;
},
{
glyphname = tha_ahom;
lastChange = "2019-03-13 13:52:43 +0000";
layers = (
{
layerId = UUID0;
paths = (
{
closed = 1;
nodes = (
"389 -12 OFFCURVE",
"460 32 OFFCURVE",
"509 101 CURVE",
"533 34 OFFCURVE",
"584 -12 OFFCURVE",
"668 -12 CURVE SMOOTH",
"818 -12 OFFCURVE",
"956 161 OFFCURVE",
"956 344 CURVE SMOOTH",
"956 463 OFFCURVE",
"902 560 OFFCURVE",
"781 560 CURVE SMOOTH",
"724 560 OFFCURVE",
"668 528 OFFCURVE",
"620 481 CURVE",
"622 494 OFFCURVE",
"623 503 OFFCURVE",
"623 511 CURVE SMOOTH",
"623 555 OFFCURVE",
"603 560 OFFCURVE",
"578 560 CURVE SMOOTH",
"549 560 OFFCURVE",
"544 546 OFFCURVE",
"537 505 CURVE SMOOTH",
"533 481 LINE",
"506 526 OFFCURVE",
"462 560 OFFCURVE",
"392 560 CURVE SMOOTH",
"318 560 OFFCURVE",
"251 505 OFFCURVE",
"211 431 CURVE",
"218 431 LINE",
"208 489 OFFCURVE",
"162 560 OFFCURVE",
"73 560 CURVE SMOOTH",
"38 560 OFFCURVE",
"20 523 OFFCURVE",
"20 499 CURVE SMOOTH",
"20 487 OFFCURVE",
"25 477 OFFCURVE",
"36 477 CURVE SMOOTH",
"53 477 LINE SMOOTH",
"128 477 OFFCURVE",
"134 397 OFFCURVE",
"134 383 CURVE SMOOTH",
"134 204 LINE SMOOTH",
"134 85 OFFCURVE",
"187 -12 OFFCURVE",
"308 -12 CURVE SMOOTH"
);
},
{
closed = 1;
nodes = (
"267 65 OFFCURVE",
"227 122 OFFCURVE",
"227 224 CURVE SMOOTH",
"227 386 OFFCURVE",
"278 485 OFFCURVE",
"375 485 CURVE SMOOTH",
"463 485 OFFCURVE",
"502 426 OFFCURVE",
"502 324 CURVE SMOOTH",
"502 209 OFFCURVE",
"473 65 OFFCURVE",
"337 65 CURVE SMOOTH"
);
},
{
closed = 1;
nodes = (
"627 65 OFFCURVE",
"587 122 OFFCURVE",
"587 224 CURVE SMOOTH",
"587 363 OFFCURVE",
"634 485 OFFCURVE",
"749 485 CURVE SMOOTH",
"826 485 OFFCURVE",
"862 426 OFFCURVE",
"862 324 CURVE SMOOTH",
"862 186 OFFCURVE",
"824 65 OFFCURVE",
"697 65 CURVE SMOOTH"
);
}
);
width = 1036;
}
);
unicode = 1170C;
category = Letter;
},
{
glyphname = ra_ahom;
lastChange = "2019-03-13 13:52:43 +0000";
layers = (
{
layerId = UUID0;
paths = (
{
closed = 1;
nodes = (
"285 -14 OFFCURVE",
"361 39 OFFCURVE",
"410 122 CURVE",
"448 31 OFFCURVE",
"524 -14 OFFCURVE",
"623 -14 CURVE SMOOTH",
"709 -14 OFFCURVE",
"785 33 OFFCURVE",
"785 126 CURVE SMOOTH",
"785 240 OFFCURVE",
"637 333 OFFCURVE",
"462 351 CURVE",
"462 368 LINE SMOOTH",
"462 569 OFFCURVE",
"547 624 OFFCURVE",
"619 624 CURVE SMOOTH",
"684 624 OFFCURVE",
"713 596 OFFCURVE",
"713 572 CURVE SMOOTH",
"713 564 OFFCURVE",
"703 560 OFFCURVE",
"691 557 CURVE SMOOTH",
"669 551 OFFCURVE",
"639 539 OFFCURVE",
"639 498 CURVE SMOOTH",
"639 462 OFFCURVE",
"664 442 OFFCURVE",
"706 442 CURVE SMOOTH",
"754 442 OFFCURVE",
"789 480 OFFCURVE",
"789 538 CURVE SMOOTH",
"789 609 OFFCURVE",
"746 690 OFFCURVE",
"619 690 CURVE SMOOTH",
"501 690 OFFCURVE",
"375 579 OFFCURVE",
"372 353 CURVE",
"129 344 OFFCURVE",
"40 214 OFFCURVE",
"40 118 CURVE SMOOTH",
"40 75 OFFCURVE",
"66 -14 OFFCURVE",
"187 -14 CURVE SMOOTH"
);
},
{
closed = 1;
nodes = (
"145 48 OFFCURVE",
"125 90 OFFCURVE",
"125 120 CURVE SMOOTH",
"125 177 OFFCURVE",
"177 266 OFFCURVE",
"372 276 CURVE",
"368 140 OFFCURVE",
"303 48 OFFCURVE",
"196 48 CURVE SMOOTH"
);
},
{
closed = 1;
nodes = (
"513 48 OFFCURVE",
"461 124 OFFCURVE",
"461 274 CURVE",
"571 261 OFFCURVE",
"700 209 OFFCURVE",
"700 124 CURVE SMOOTH",
"700 76 OFFCURVE",
"681 48 OFFCURVE",
"623 48 CURVE SMOOTH"
);
}
);
width = 869;
}
);
unicode = 1170D;
category = Letter;
},
{
glyphname = la_ahom;
lastChange = "2019-03-13 13:52:43 +0000";
layers = (
{
layerId = UUID0;
paths = (
{
closed = 1;
nodes = (
"763 -14 OFFCURVE",
"873 135 OFFCURVE",
"873 345 CURVE SMOOTH",
"873 502 OFFCURVE",
"796 560 OFFCURVE",
"724 560 CURVE SMOOTH",
"688 560 OFFCURVE",
"662 536 OFFCURVE",
"662 502 CURVE SMOOTH",
"662 461 OFFCURVE",
"689 445 OFFCURVE",
"720 431 CURVE SMOOTH",
"756 415 OFFCURVE",
"794 396 OFFCURVE",
"794 324 CURVE SMOOTH",
"794 176 OFFCURVE",
"745 48 OFFCURVE",
"637 48 CURVE SMOOTH",
"582 48 OFFCURVE",
"554 82 OFFCURVE",
"554 175 CURVE SMOOTH",
"554 414 LINE SMOOTH",
"554 526 OFFCURVE",
"526 536 OFFCURVE",
"498 536 CURVE SMOOTH",
"449 536 OFFCURVE",
"404 467 OFFCURVE",
"346 358 CURVE SMOOTH",
"224 130 LINE",
"224 338 LINE SMOOTH",
"224 477 OFFCURVE",
"144 560 OFFCURVE",
"69 560 CURVE SMOOTH",
"43 560 OFFCURVE",
"20 531 OFFCURVE",
"20 499 CURVE SMOOTH",
"20 487 OFFCURVE",
"26 481 OFFCURVE",
"36 477 CURVE SMOOTH",
"102 451 OFFCURVE",
"134 423 OFFCURVE",
"134 325 CURVE SMOOTH",
"134 73 LINE SMOOTH",
"134 4 OFFCURVE",
"159 -10 OFFCURVE",
"180 -10 CURVE SMOOTH",
"198 -10 OFFCURVE",
"216 -5 OFFCURVE",
"231 22 CURVE SMOOTH",
"391 318 LINE SMOOTH",
"421 373 OFFCURVE",
"445 416 OFFCURVE",
"455 416 CURVE SMOOTH",
"464 416 OFFCURVE",
"464 394 OFFCURVE",
"464 350 CURVE SMOOTH",
"464 195 LINE SMOOTH",
"464 81 OFFCURVE",
"499 -14 OFFCURVE",
"618 -14 CURVE SMOOTH"
);
}
);
width = 953;
}
);
unicode = 1170E;
category = Letter;
},
{
glyphname = sa_ahom;
lastChange = "2019-03-13 13:52:43 +0000";
layers = (
{
layerId = UUID0;
paths = (
{
closed = 1;
nodes = (
"199 -10 OFFCURVE",
"214 -3 OFFCURVE",
"232 21 CURVE SMOOTH",
"423 281 LINE SMOOTH",
"475 351 OFFCURVE",
"493 375 OFFCURVE",
"503 375 CURVE SMOOTH",
"513 375 OFFCURVE",
"514 358 OFFCURVE",
"514 314 CURVE SMOOTH",
"514 35 LINE SMOOTH",
"514 5 OFFCURVE",
"537 -10 OFFCURVE",
"561 -10 CURVE SMOOTH",
"594 -10 OFFCURVE",
"620 10 OFFCURVE",
"642 27 CURVE SMOOTH",
"771 126 OFFCURVE",
"915 391 OFFCURVE",
"915 560 CURVE SMOOTH",
"915 615 OFFCURVE",
"900 648 OFFCURVE",
"865 648 CURVE SMOOTH",
"829 648 OFFCURVE",
"813 613 OFFCURVE",
"813 588 CURVE SMOOTH",
"813 572 OFFCURVE",
"815 559 OFFCURVE",
"817 546 CURVE SMOOTH",
"819 532 OFFCURVE",
"821 518 OFFCURVE",
"821 504 CURVE SMOOTH",
"821 356 OFFCURVE",
"699 137 OFFCURVE",
"604 64 CURVE",
"604 378 LINE SMOOTH",
"604 490 OFFCURVE",
"583 500 OFFCURVE",
"558 500 CURVE SMOOTH",
"512 500 OFFCURVE",
"433 393 OFFCURVE",
"380 321 CURVE SMOOTH",
"224 108 LINE",
"224 338 LINE SMOOTH",
"224 477 OFFCURVE",
"144 560 OFFCURVE",
"69 560 CURVE SMOOTH",
"43 560 OFFCURVE",
"20 531 OFFCURVE",
"20 499 CURVE SMOOTH",
"20 487 OFFCURVE",
"26 481 OFFCURVE",
"36 477 CURVE SMOOTH",
"102 451 OFFCURVE",
"134 423 OFFCURVE",
"134 325 CURVE SMOOTH",
"134 73 LINE SMOOTH",
"134 16 OFFCURVE",
"152 -10 OFFCURVE",
"178 -10 CURVE SMOOTH"
);
}
);
width = 1025;
}
);
unicode = 1170F;
category = Letter;
},
{
glyphname = nya_ahom;
lastChange = "2019-03-13 13:52:43 +0000";
layers = (
{
layerId = UUID0;
paths = (
{
closed = 1;
nodes = (
"709 -14 OFFCURVE",
"840 114 OFFCURVE",
"840 220 CURVE SMOOTH",
"840 260 OFFCURVE",
"821 314 OFFCURVE",
"753 314 CURVE SMOOTH",
"709 314 OFFCURVE",
"686 284 OFFCURVE",
"686 253 CURVE SMOOTH",
"686 226 OFFCURVE",
"699 210 OFFCURVE",
"723 196 CURVE SMOOTH",
"739 187 OFFCURVE",
"753 179 OFFCURVE",
"753 161 CURVE SMOOTH",
"753 114 OFFCURVE",
"685 38 OFFCURVE",
"606 38 CURVE SMOOTH",
"590 38 OFFCURVE",
"554 49 OFFCURVE",
"554 96 CURVE SMOOTH",
"554 328 LINE",
"695 361 OFFCURVE",
"791 474 OFFCURVE",
"791 592 CURVE SMOOTH",
"791 625 OFFCURVE",
"783 635 OFFCURVE",
"765 635 CURVE SMOOTH",
"754 635 OFFCURVE",
"743 631 OFFCURVE",
"741 610 CURVE SMOOTH",
"734 519 OFFCURVE",
"648 439 OFFCURVE",
"554 407 CURVE",
"554 434 LINE SMOOTH",
"554 546 OFFCURVE",
"529 560 OFFCURVE",
"501 560 CURVE SMOOTH",
"458 560 OFFCURVE",
"411 489 OFFCURVE",
"370 411 CURVE SMOOTH",
"224 131 LINE",
"224 362 LINE SMOOTH",
"224 490 OFFCURVE",
"151 560 OFFCURVE",
"66 560 CURVE SMOOTH",
"45 560 OFFCURVE",
"20 531 OFFCURVE",
"20 499 CURVE SMOOTH",
"20 487 OFFCURVE",
"26 481 OFFCURVE",
"36 477 CURVE SMOOTH",
"92 455 OFFCURVE",
"134 425 OFFCURVE",
"134 336 CURVE SMOOTH",
"134 73 LINE SMOOTH",
"134 4 OFFCURVE",
"159 -10 OFFCURVE",
"180 -10 CURVE SMOOTH",
"198 -10 OFFCURVE",
"216 -6 OFFCURVE",
"229 19 CURVE SMOOTH",
"394 338 LINE SMOOTH",
"423 393 OFFCURVE",
"445 433 OFFCURVE",
"455 433 CURVE SMOOTH",
"463 433 OFFCURVE",
"464 416 OFFCURVE",
"464 383 CURVE SMOOTH",
"464 105 LINE SMOOTH",
"464 18 OFFCURVE",
"514 -14 OFFCURVE",
"579 -14 CURVE SMOOTH"
);
}
);
width = 920;
}
);
unicode = 11710;
category = Letter;
},
{
glyphname = ha_ahom;
lastChange = "2019-03-13 13:52:43 +0000";
layers = (
{
layerId = UUID0;
paths = (
{
closed = 1;
nodes = (
"201 0 OFFCURVE",
"218 11 OFFCURVE",
"229 28 CURVE SMOOTH",
"432 350 LINE SMOOTH",
"478 423 OFFCURVE",
"492 445 OFFCURVE",
"502 445 CURVE SMOOTH",
"514 445 OFFCURVE",
"514 418 OFFCURVE",
"514 374 CURVE SMOOTH",
"514 25 LINE SMOOTH",
"514 5 OFFCURVE",
"537 0 OFFCURVE",
"561 0 CURVE SMOOTH",
"582 0 OFFCURVE",
"604 1 OFFCURVE",
"604 25 CURVE SMOOTH",
"604 438 LINE SMOOTH",
"604 539 OFFCURVE",
"585 560 OFFCURVE",
"544 560 CURVE SMOOTH",
"502 560 OFFCURVE",
"466 516 OFFCURVE",
"388 390 CURVE SMOOTH",
"224 127 LINE",
"224 354 LINE SMOOTH",
"224 422 OFFCURVE",
"151 560 OFFCURVE",
"66 560 CURVE SMOOTH",
"45 560 OFFCURVE",
"20 523 OFFCURVE",
"20 499 CURVE SMOOTH",
"20 487 OFFCURVE",
"26 481 OFFCURVE",
"36 477 CURVE SMOOTH",
"127 438 OFFCURVE",
"134 350 OFFCURVE",
"134 336 CURVE SMOOTH",
"134 83 LINE SMOOTH",
"134 14 OFFCURVE",
"159 0 OFFCURVE",
"180 0 CURVE SMOOTH"
);
}
);
width = 724;
}
);
unicode = 11711;
category = Letter;
},
{
glyphname = a_ahom;
lastChange = "2019-03-13 13:52:43 +0000";
layers = (
{
layerId = UUID0;
paths = (
{
closed = 1;
nodes = (
"204 -10 OFFCURVE",
"224 -2 OFFCURVE",
"224 15 CURVE SMOOTH",
"224 364 LINE",
"272 425 OFFCURVE",
"337 478 OFFCURVE",
"373 478 CURVE SMOOTH",
"417 478 OFFCURVE",
"434 447 OFFCURVE",
"434 353 CURVE SMOOTH",
"434 15 LINE SMOOTH",
"434 -2 OFFCURVE",
"456 -10 OFFCURVE",
"479 -10 CURVE SMOOTH",
"501 -10 OFFCURVE",
"524 -2 OFFCURVE",
"524 15 CURVE SMOOTH",
"524 362 LINE",
"573 425 OFFCURVE",
"637 478 OFFCURVE",
"673 478 CURVE SMOOTH",
"717 478 OFFCURVE",
"734 447 OFFCURVE",
"734 353 CURVE SMOOTH",
"734 15 LINE SMOOTH",
"734 -5 OFFCURVE",
"757 -10 OFFCURVE",
"781 -10 CURVE SMOOTH",
"802 -10 OFFCURVE",
"824 -9 OFFCURVE",
"824 15 CURVE SMOOTH",
"824 377 LINE SMOOTH",
"824 529 OFFCURVE",
"772 560 OFFCURVE",
"710 560 CURVE SMOOTH",
"647 560 OFFCURVE",
"570 497 OFFCURVE",
"520 442 CURVE",
"506 538 OFFCURVE",
"462 560 OFFCURVE",
"410 560 CURVE SMOOTH",
"382 560 OFFCURVE",
"353 549 OFFCURVE",
"323 530 CURVE",
"317 507 LINE",
"389 624 OFFCURVE",
"442 638 OFFCURVE",
"463 638 CURVE SMOOTH",
"474 638 OFFCURVE",
"484 637 OFFCURVE",
"495 635 CURVE SMOOTH",
"504 633 OFFCURVE",
"514 633 OFFCURVE",
"523 633 CURVE SMOOTH",
"548 633 OFFCURVE",
"585 649 OFFCURVE",
"585 692 CURVE SMOOTH",
"585 728 OFFCURVE",
"553 740 OFFCURVE",
"531 740 CURVE SMOOTH",
"479 740 OFFCURVE",
"366 699 OFFCURVE",
"244 467 CURVE",
"230 453 OFFCURVE",
"217 440 OFFCURVE",
"206 427 CURVE",
"180 491 OFFCURVE",
"126 560 OFFCURVE",
"66 560 CURVE SMOOTH",
"45 560 OFFCURVE",
"20 523 OFFCURVE",
"20 499 CURVE SMOOTH",
"20 487 OFFCURVE",
"26 481 OFFCURVE",
"36 477 CURVE SMOOTH",
"127 438 OFFCURVE",
"134 350 OFFCURVE",
"134 336 CURVE SMOOTH",
"134 15 LINE SMOOTH",
"134 -4 OFFCURVE",
"159 -10 OFFCURVE",
"180 -10 CURVE SMOOTH"
);
}
);
width = 944;
}
);
unicode = 11712;
category = Letter;
},
{
glyphname = da_ahom;
lastChange = "2019-03-13 13:52:43 +0000";
layers = (
{
layerId = UUID0;
paths = (
{
closed = 1;
nodes = (
"529 -240 OFFCURVE",
"647 -172 OFFCURVE",
"647 -14 CURVE SMOOTH",
"647 123 OFFCURVE",
"544 203 OFFCURVE",
"426 203 CURVE SMOOTH",
"341 203 OFFCURVE",
"271 158 OFFCURVE",
"224 106 CURVE",
"224 324 LINE SMOOTH",
"224 380 OFFCURVE",
"213 417 OFFCURVE",
"194 453 CURVE",
"205 453 LINE SMOOTH",
"247 453 OFFCURVE",
"290 459 OFFCURVE",
"330 465 CURVE SMOOTH",
"362 470 OFFCURVE",
"392 474 OFFCURVE",
"416 474 CURVE SMOOTH",
"446 474 OFFCURVE",
"467 458 OFFCURVE",
"488 442 CURVE SMOOTH",
"508 426 OFFCURVE",
"528 410 OFFCURVE",
"557 410 CURVE SMOOTH",
"582 410 OFFCURVE",
"625 430 OFFCURVE",
"625 478 CURVE SMOOTH",
"625 523 OFFCURVE",
"596 550 OFFCURVE",
"548 550 CURVE SMOOTH",
"506 550 OFFCURVE",
"458 542 OFFCURVE",
"407 531 CURVE SMOOTH",
"350 519 OFFCURVE",
"291 508 OFFCURVE",
"232 508 CURVE SMOOTH",
"204 508 OFFCURVE",
"176 510 OFFCURVE",
"149 517 CURVE",
"125 542 OFFCURVE",
"96 560 OFFCURVE",
"66 560 CURVE SMOOTH",
"45 560 OFFCURVE",
"20 523 OFFCURVE",
"20 499 CURVE SMOOTH",
"20 487 OFFCURVE",
"26 481 OFFCURVE",
"36 477 CURVE SMOOTH",
"127 438 OFFCURVE",
"134 350 OFFCURVE",
"134 336 CURVE SMOOTH",
"134 73 LINE SMOOTH",
"134 4 OFFCURVE",
"159 -10 OFFCURVE",
"180 -10 CURVE SMOOTH",
"208 -10 OFFCURVE",
"221 2 OFFCURVE",
"227 13 CURVE SMOOTH",
"263 79 OFFCURVE",
"326 121 OFFCURVE",
"419 121 CURVE SMOOTH",
"484 121 OFFCURVE",
"553 85 OFFCURVE",
"553 -14 CURVE SMOOTH",
"553 -151 OFFCURVE",
"490 -176 OFFCURVE",
"448 -176 CURVE SMOOTH",
"412 -176 OFFCURVE",
"406 -151 OFFCURVE",
"401 -125 CURVE SMOOTH",
"396 -97 OFFCURVE",
"382 -66 OFFCURVE",
"343 -66 CURVE SMOOTH",
"305 -66 OFFCURVE",
"282 -93 OFFCURVE",
"282 -131 CURVE SMOOTH",
"282 -210 OFFCURVE",
"366 -240 OFFCURVE",
"439 -240 CURVE SMOOTH"
);
}
);
width = 727;
}
);
unicode = 11713;
category = Letter;
},
{
glyphname = dha_ahom;
lastChange = "2019-03-13 13:52:43 +0000";
layers = (
{
layerId = UUID0;
paths = (
{
closed = 1;
nodes = (
"555 -320 OFFCURVE",
"647 -180 OFFCURVE",
"647 -41 CURVE SMOOTH",
"647 -23 OFFCURVE",
"645 -5 OFFCURVE",
"635 16 CURVE",
"621 7 LINE",
"634 -5 OFFCURVE",
"659 -12 OFFCURVE",
"689 -12 CURVE SMOOTH",
"815 -12 OFFCURVE",
"956 156 OFFCURVE",
"956 344 CURVE SMOOTH",
"956 463 OFFCURVE",
"902 560 OFFCURVE",
"781 560 CURVE SMOOTH",
"718 560 OFFCURVE",
"643 519 OFFCURVE",
"605 456 CURVE",
"610 451 LINE",
"613 465 OFFCURVE",
"618 498 OFFCURVE",
"618 511 CURVE SMOOTH",
"618 548 OFFCURVE",
"603 560 OFFCURVE",
"578 560 CURVE SMOOTH",
"549 560 OFFCURVE",
"535 546 OFFCURVE",
"532 505 CURVE SMOOTH",
"528 453 LINE",
"538 453 LINE",
"516 518 OFFCURVE",
"470 560 OFFCURVE",
"392 560 CURVE SMOOTH",
"310 560 OFFCURVE",
"243 502 OFFCURVE",
"205 421 CURVE",
"214 424 LINE",
"208 489 OFFCURVE",
"162 560 OFFCURVE",
"73 560 CURVE SMOOTH",
"38 560 OFFCURVE",
"20 523 OFFCURVE",
"20 499 CURVE SMOOTH",
"20 487 OFFCURVE",
"25 477 OFFCURVE",
"36 477 CURVE SMOOTH",
"53 477 LINE SMOOTH",
"128 477 OFFCURVE",
"134 397 OFFCURVE",
"134 383 CURVE SMOOTH",
"134 204 LINE SMOOTH",
"134 85 OFFCURVE",
"187 -12 OFFCURVE",
"308 -12 CURVE SMOOTH",
"335 -12 OFFCURVE",
"363 -7 OFFCURVE",
"388 9 CURVE",
"378 12 LINE",
"354 -32 OFFCURVE",
"337 -84 OFFCURVE",
"337 -149 CURVE SMOOTH",
"337 -247 OFFCURVE",
"386 -320 OFFCURVE",
"468 -320 CURVE SMOOTH"
);
},
{
closed = 1;
nodes = (
"443 -236 OFFCURVE",
"417 -207 OFFCURVE",
"417 -132 CURVE SMOOTH",
"417 -38 OFFCURVE",
"460 49 OFFCURVE",
"549 159 CURVE",
"531 150 LINE",
"552 88 OFFCURVE",
"567 10 OFFCURVE",
"567 -55 CURVE SMOOTH",
"567 -179 OFFCURVE",
"534 -236 OFFCURVE",
"487 -236 CURVE SMOOTH"
);
},
{
closed = 1;
nodes = (
"267 65 OFFCURVE",
"227 122 OFFCURVE",
"227 224 CURVE SMOOTH",
"227 386 OFFCURVE",
"278 485 OFFCURVE",
"375 485 CURVE SMOOTH",
"463 485 OFFCURVE",
"502 426 OFFCURVE",
"502 324 CURVE SMOOTH",
"502 209 OFFCURVE",
"473 65 OFFCURVE",
"337 65 CURVE SMOOTH"
);
},
{
closed = 1;
nodes = (
"627 65 OFFCURVE",
"587 122 OFFCURVE",
"587 224 CURVE SMOOTH",
"587 363 OFFCURVE",
"634 485 OFFCURVE",
"749 485 CURVE SMOOTH",
"826 485 OFFCURVE",
"862 426 OFFCURVE",
"862 324 CURVE SMOOTH",
"862 131 OFFCURVE",
"797 65 OFFCURVE",
"702 65 CURVE SMOOTH"
);
}
);
width = 1036;
}
);
unicode = 11714;
category = Letter;
},
{
glyphname = ga_ahom;
lastChange = "2019-03-13 13:52:43 +0000";
layers = (
{
layerId = UUID0;
paths = (
{
closed = 1;
nodes = (
"308 -14 OFFCURVE",
"330 6 OFFCURVE",
"330 36 CURVE SMOOTH",
"330 66 OFFCURVE",
"312 91 OFFCURVE",
"267 101 CURVE SMOOTH",
"218 112 OFFCURVE",
"144 130 OFFCURVE",
"144 265 CURVE SMOOTH",
"144 402 OFFCURVE",
"235 492 OFFCURVE",
"418 492 CURVE SMOOTH",
"602 492 OFFCURVE",
"692 402 OFFCURVE",
"692 265 CURVE SMOOTH",
"692 115 OFFCURVE",
"620 83 OFFCURVE",
"571 66 CURVE SMOOTH",
"542 56 OFFCURVE",
"532 36 OFFCURVE",
"532 19 CURVE SMOOTH",
"532 3 OFFCURVE",
"546 -14 OFFCURVE",
"577 -14 CURVE SMOOTH",
"687 -14 OFFCURVE",
"776 118 OFFCURVE",
"776 250 CURVE SMOOTH",
"776 427 OFFCURVE",
"650 560 OFFCURVE",
"418 560 CURVE SMOOTH",
"200 560 OFFCURVE",
"60 423 OFFCURVE",
"60 240 CURVE SMOOTH",
"60 97 OFFCURVE",
"148 -14 OFFCURVE",
"265 -14 CURVE SMOOTH"
);
}
);
width = 836;
}
);
unicode = 11715;
category = Letter;
},
{
glyphname = ga_ahom.alt;
lastChange = "2019-03-13 13:52:43 +0000";
layers = (
{
layerId = UUID0;
paths = (
{
closed = 1;
nodes = (
"161 -14 OFFCURVE",
"172 -12 OFFCURVE",
"178 -10 CURVE SMOOTH",
"323 38 OFFCURVE",
"475 137 OFFCURVE",
"475 326 CURVE SMOOTH",
"475 444 OFFCURVE",
"411 560 OFFCURVE",
"263 560 CURVE SMOOTH",
"139 560 OFFCURVE",
"80 465 OFFCURVE",
"80 399 CURVE SMOOTH",
"80 331 OFFCURVE",
"117 293 OFFCURVE",
"173 293 CURVE SMOOTH",
"220 293 OFFCURVE",
"254 326 OFFCURVE",
"254 366 CURVE SMOOTH",
"254 398 OFFCURVE",
"236 412 OFFCURVE",
"216 423 CURVE SMOOTH",
"202 431 OFFCURVE",
"192 438 OFFCURVE",
"192 451 CURVE SMOOTH",
"192 470 OFFCURVE",
"213 493 OFFCURVE",
"261 493 CURVE SMOOTH",
"320 493 OFFCURVE",
"381 443 OFFCURVE",
"381 338 CURVE SMOOTH",
"381 160 OFFCURVE",
"208 94 OFFCURVE",
"158 80 CURVE SMOOTH",
"120 69 OFFCURVE",
"105 53 OFFCURVE",
"105 30 CURVE SMOOTH",
"105 6 OFFCURVE",
"125 -14 OFFCURVE",
"151 -14 CURVE SMOOTH"
);
}
);
width = 555;
}
);
category = Letter;
},
{
glyphname = alt_ga_ahom;
lastChange = "2019-03-13 13:52:43 +0000";
layers = (
{
layerId = UUID0;
paths = (
{
closed = 1;
nodes = (
"308 -14 OFFCURVE",
"330 6 OFFCURVE",
"330 36 CURVE SMOOTH",
"330 60 OFFCURVE",
"312 87 OFFCURVE",
"267 101 CURVE SMOOTH",
"218 116 OFFCURVE",
"144 130 OFFCURVE",
"144 265 CURVE SMOOTH",
"144 422 OFFCURVE",
"255 492 OFFCURVE",
"378 492 CURVE SMOOTH",
"502 492 OFFCURVE",
"602 422 OFFCURVE",
"602 265 CURVE SMOOTH",
"602 115 OFFCURVE",
"530 83 OFFCURVE",
"481 66 CURVE SMOOTH",
"452 56 OFFCURVE",
"442 38 OFFCURVE",
"442 21 CURVE SMOOTH",
"442 5 OFFCURVE",
"453 -14 OFFCURVE",
"491 -14 CURVE SMOOTH",
"601 -14 OFFCURVE",
"686 118 OFFCURVE",
"686 250 CURVE SMOOTH",
"686 329 OFFCURVE",
"667 397 OFFCURVE",
"629 449 CURVE",
"670 478 OFFCURVE",
"723 492 OFFCURVE",
"778 492 CURVE SMOOTH",
"902 492 OFFCURVE",
"1002 422 OFFCURVE",
"1002 265 CURVE SMOOTH",
"1002 87 OFFCURVE",
"916 63 OFFCURVE",
"888 63 CURVE SMOOTH",
"866 63 OFFCURVE",
"858 79 OFFCURVE",
"852 97 CURVE SMOOTH",
"846 115 OFFCURVE",
"836 135 OFFCURVE",
"811 135 CURVE SMOOTH",
"785 135 OFFCURVE",
"759 115 OFFCURVE",
"759 81 CURVE SMOOTH",
"759 34 OFFCURVE",
"799 -14 OFFCURVE",
"872 -14 CURVE SMOOTH",
"996 -14 OFFCURVE",
"1086 113 OFFCURVE",
"1086 263 CURVE SMOOTH",
"1086 438 OFFCURVE",
"980 560 OFFCURVE",
"778 560 CURVE SMOOTH",
"703 560 OFFCURVE",
"636 538 OFFCURVE",
"582 498 CURVE",
"531 537 OFFCURVE",
"463 560 OFFCURVE",
"378 560 CURVE SMOOTH",
"200 560 OFFCURVE",
"60 433 OFFCURVE",
"60 240 CURVE SMOOTH",
"60 97 OFFCURVE",
"148 -14 OFFCURVE",
"265 -14 CURVE SMOOTH"
);
}
);
width = 1146;
}
);
unicode = 11716;
category = Letter;
},
{
glyphname = gha_ahom;
lastChange = "2019-03-13 13:52:43 +0000";
layers = (
{
layerId = UUID0;
paths = (
{
closed = 1;
nodes = (
"413 -254 OFFCURVE",
"522 -185 OFFCURVE",
"522 -64 CURVE SMOOTH",
"522 6 OFFCURVE",
"469 75 OFFCURVE",
"412 115 CURVE",
"433 150 OFFCURVE",
"451 191 OFFCURVE",
"469 232 CURVE SMOOTH",
"533 377 OFFCURVE",
"584 478 OFFCURVE",
"696 478 CURVE SMOOTH",
"761 478 OFFCURVE",
"830 442 OFFCURVE",
"830 343 CURVE SMOOTH",
"830 206 OFFCURVE",
"767 181 OFFCURVE",
"725 181 CURVE SMOOTH",
"689 181 OFFCURVE",
"682 205 OFFCURVE",
"678 231 CURVE SMOOTH",
"673 260 OFFCURVE",
"666 291 OFFCURVE",
"618 291 CURVE SMOOTH",
"588 291 OFFCURVE",
"559 264 OFFCURVE",
"559 226 CURVE SMOOTH",
"559 147 OFFCURVE",
"643 117 OFFCURVE",
"716 117 CURVE SMOOTH",
"806 117 OFFCURVE",
"924 185 OFFCURVE",
"924 343 CURVE SMOOTH",
"924 480 OFFCURVE",
"821 560 OFFCURVE",
"703 560 CURVE SMOOTH",
"561 560 OFFCURVE",
"491 453 OFFCURVE",
"420 277 CURVE SMOOTH",
"369 151 OFFCURVE",
"335 78 OFFCURVE",
"276 78 CURVE SMOOTH",
"243 78 OFFCURVE",
"224 103 OFFCURVE",
"224 168 CURVE SMOOTH",
"224 371 LINE SMOOTH",
"224 517 OFFCURVE",
"147 560 OFFCURVE",
"73 560 CURVE SMOOTH",
"38 560 OFFCURVE",
"20 523 OFFCURVE",
"20 499 CURVE SMOOTH",
"20 487 OFFCURVE",
"25 477 OFFCURVE",
"36 477 CURVE SMOOTH",
"53 477 LINE SMOOTH",
"104 477 OFFCURVE",
"134 444 OFFCURVE",
"134 383 CURVE SMOOTH",
"134 225 LINE SMOOTH",
"134 121 OFFCURVE",
"168 16 OFFCURVE",
"271 16 CURVE SMOOTH",
"305 16 OFFCURVE",
"333 28 OFFCURVE",
"357 48 CURVE",
"396 19 OFFCURVE",
"428 -20 OFFCURVE",
"428 -67 CURVE SMOOTH",
"428 -164 OFFCURVE",
"357 -192 OFFCURVE",
"302 -192 CURVE SMOOTH",
"202 -192 OFFCURVE",
"137 -109 OFFCURVE",
"121 -51 CURVE SMOOTH",
"117 -36 OFFCURVE",
"112 -25 OFFCURVE",
"81 -25 CURVE SMOOTH",
"60 -25 OFFCURVE",
"45 -38 OFFCURVE",
"45 -62 CURVE SMOOTH",
"45 -112 OFFCURVE",
"120 -254 OFFCURVE",
"297 -254 CURVE SMOOTH"
);
}
);
width = 964;
}
);
unicode = 11717;
category = Letter;
},
{
glyphname = bha_ahom;
lastChange = "2019-03-13 13:52:43 +0000";
layers = (
{
layerId = UUID0;
paths = (
{
closed = 1;
nodes = (
"544 -320 OFFCURVE",
"646 -182 OFFCURVE",
"646 -41 CURVE SMOOTH",
"646 -30 OFFCURVE",
"645 -20 OFFCURVE",
"644 -10 CURVE",
"653 -11 OFFCURVE",
"662 -12 OFFCURVE",
"671 -12 CURVE SMOOTH",
"821 -12 OFFCURVE",
"959 161 OFFCURVE",
"959 344 CURVE SMOOTH",
"959 463 OFFCURVE",
"905 560 OFFCURVE",
"784 560 CURVE SMOOTH",
"700 560 OFFCURVE",
"614 504 OFFCURVE",
"560 412 CURVE",
"571 412 LINE",
"569 507 OFFCURVE",
"526 560 OFFCURVE",
"486 560 CURVE SMOOTH",
"472 560 OFFCURVE",
"450 552 OFFCURVE",
"450 531 CURVE SMOOTH",
"450 512 OFFCURVE",
"456 501 OFFCURVE",
"465 489 CURVE SMOOTH",
"483 465 OFFCURVE",
"504 435 OFFCURVE",
"504 324 CURVE SMOOTH",
"504 176 OFFCURVE",
"425 48 OFFCURVE",
"317 48 CURVE SMOOTH",
"239 48 OFFCURVE",
"224 90 OFFCURVE",
"224 165 CURVE SMOOTH",
"224 383 LINE SMOOTH",
"224 502 OFFCURVE",
"153 560 OFFCURVE",
"73 560 CURVE SMOOTH",
"38 560 OFFCURVE",
"20 523 OFFCURVE",
"20 499 CURVE SMOOTH",
"20 487 OFFCURVE",
"25 477 OFFCURVE",
"36 477 CURVE SMOOTH",
"53 477 LINE SMOOTH",
"97 477 OFFCURVE",
"134 443 OFFCURVE",
"134 383 CURVE SMOOTH",
"134 195 LINE SMOOTH",
"134 91 OFFCURVE",
"156 -14 OFFCURVE",
"298 -14 CURVE SMOOTH",
"327 -14 OFFCURVE",
"357 -7 OFFCURVE",
"384 6 CURVE",
"387 24 LINE",
"355 -24 OFFCURVE",
"336 -84 OFFCURVE",
"336 -149 CURVE SMOOTH",
"336 -247 OFFCURVE",
"385 -320 OFFCURVE",
"467 -320 CURVE SMOOTH"
);
},
{
closed = 1;
nodes = (
"443 -236 OFFCURVE",
"417 -207 OFFCURVE",
"417 -132 CURVE SMOOTH",
"417 -38 OFFCURVE",
"460 49 OFFCURVE",
"549 159 CURVE",
"531 150 LINE",
"552 88 OFFCURVE",
"567 10 OFFCURVE",
"567 -55 CURVE SMOOTH",
"567 -179 OFFCURVE",
"534 -236 OFFCURVE",
"487 -236 CURVE SMOOTH"
);
},
{
closed = 1;
nodes = (
"630 65 OFFCURVE",
"590 122 OFFCURVE",
"590 224 CURVE SMOOTH",
"590 378 OFFCURVE",
"633 480 OFFCURVE",
"748 480 CURVE SMOOTH",
"825 480 OFFCURVE",
"865 426 OFFCURVE",
"865 324 CURVE SMOOTH",
"865 186 OFFCURVE",
"827 65 OFFCURVE",
"700 65 CURVE SMOOTH"
);
}
);
width = 1039;
}
);
unicode = 11718;
category = Letter;
},
{
glyphname = jha_ahom;
lastChange = "2019-03-13 13:52:43 +0000";
layers = (
{
layerId = UUID0;
paths = (
{
closed = 1;
nodes = (
"523 -320 OFFCURVE",
"611 -177 OFFCURVE",
"611 -78 CURVE SMOOTH",
"611 -38 OFFCURVE",
"600 -10 OFFCURVE",
"585 6 CURVE",
"585 -16 LINE",
"721 -16 OFFCURVE",
"873 141 OFFCURVE",
"873 345 CURVE SMOOTH",
"873 502 OFFCURVE",
"796 560 OFFCURVE",
"724 560 CURVE SMOOTH",
"688 560 OFFCURVE",
"662 536 OFFCURVE",
"662 505 CURVE SMOOTH",
"662 461 OFFCURVE",
"690 446 OFFCURVE",
"720 432 CURVE SMOOTH",
"755 416 OFFCURVE",
"794 397 OFFCURVE",
"794 324 CURVE SMOOTH",
"794 176 OFFCURVE",
"715 48 OFFCURVE",
"607 48 CURVE SMOOTH",
"552 48 OFFCURVE",
"524 82 OFFCURVE",
"524 175 CURVE SMOOTH",
"524 535 LINE SMOOTH",
"524 552 OFFCURVE",
"501 560 OFFCURVE",
"479 560 CURVE SMOOTH",
"456 560 OFFCURVE",
"434 552 OFFCURVE",
"434 535 CURVE SMOOTH",
"434 247 LINE SMOOTH",
"434 119 OFFCURVE",
"400 49 OFFCURVE",
"321 49 CURVE SMOOTH",
"264 49 OFFCURVE",
"224 62 OFFCURVE",
"224 219 CURVE SMOOTH",
"224 365 LINE SMOOTH",
"224 515 OFFCURVE",
"138 560 OFFCURVE",
"73 560 CURVE SMOOTH",
"44 560 OFFCURVE",
"20 536 OFFCURVE",
"20 499 CURVE SMOOTH",
"20 487 OFFCURVE",
"25 477 OFFCURVE",
"36 477 CURVE SMOOTH",
"53 477 LINE SMOOTH",
"100 477 OFFCURVE",
"134 451 OFFCURVE",
"134 365 CURVE SMOOTH",
"134 219 LINE SMOOTH",
"134 32 OFFCURVE",
"219 -14 OFFCURVE",
"315 -14 CURVE SMOOTH",
"332 -14 OFFCURVE",
"351 -11 OFFCURVE",
"368 0 CURVE",
"355 4 LINE",
"328 -39 OFFCURVE",
"315 -88 OFFCURVE",
"315 -149 CURVE SMOOTH",
"315 -247 OFFCURVE",
"364 -320 OFFCURVE",
"446 -320 CURVE SMOOTH"
);
},
{
closed = 1;
nodes = (
"421 -236 OFFCURVE",
"395 -207 OFFCURVE",
"395 -134 CURVE SMOOTH",
"395 -52 OFFCURVE",
"415 1 OFFCURVE",
"477 74 CURVE",
"457 74 LINE",
"508 19 OFFCURVE",
"531 -21 OFFCURVE",
"531 -92 CURVE SMOOTH",
"531 -179 OFFCURVE",
"504 -236 OFFCURVE",
"452 -236 CURVE SMOOTH"
);
}
);
width = 953;
}
);
unicode = 11719;
category = Letter;
},
{
glyphname = jha_ahom.alt;
lastChange = "2019-03-13 13:52:43 +0000";
layers = (
{
layerId = UUID0;
paths = (
{
closed = 1;
nodes = (
"370 -14 OFFCURVE",
"437 13 OFFCURVE",
"470 82 CURVE",
"457 81 LINE",
"470 22 OFFCURVE",
"519 -14 OFFCURVE",
"588 -14 CURVE SMOOTH",
"723 -14 OFFCURVE",
"873 143 OFFCURVE",
"873 345 CURVE SMOOTH",
"873 502 OFFCURVE",
"796 560 OFFCURVE",
"724 560 CURVE SMOOTH",
"688 560 OFFCURVE",
"662 535 OFFCURVE",
"662 500 CURVE SMOOTH",
"662 467 OFFCURVE",
"685 444 OFFCURVE",
"719 430 CURVE SMOOTH",
"755 415 OFFCURVE",
"794 397 OFFCURVE",
"794 324 CURVE SMOOTH",
"794 176 OFFCURVE",
"715 48 OFFCURVE",
"607 48 CURVE SMOOTH",
"552 48 OFFCURVE",
"524 82 OFFCURVE",
"524 175 CURVE SMOOTH",
"524 513 LINE",
"586 543 OFFCURVE",
"638 621 OFFCURVE",
"638 730 CURVE SMOOTH",
"638 820 OFFCURVE",
"599 891 OFFCURVE",
"523 891 CURVE SMOOTH",
"414 891 OFFCURVE",
"351 759 OFFCURVE",
"351 673 CURVE SMOOTH",
"351 574 OFFCURVE",
"384 520 OFFCURVE",
"434 504 CURVE",
"434 237 LINE SMOOTH",
"434 92 OFFCURVE",
"384 49 OFFCURVE",
"316 49 CURVE SMOOTH",
"246 49 OFFCURVE",
"224 92 OFFCURVE",
"224 219 CURVE SMOOTH",
"224 365 LINE SMOOTH",
"224 515 OFFCURVE",
"138 560 OFFCURVE",
"73 560 CURVE SMOOTH",
"44 560 OFFCURVE",
"20 535 OFFCURVE",
"20 499 CURVE SMOOTH",
"20 487 OFFCURVE",
"25 477 OFFCURVE",
"36 477 CURVE SMOOTH",
"53 477 LINE SMOOTH",
"100 477 OFFCURVE",
"134 451 OFFCURVE",
"134 365 CURVE SMOOTH",
"134 219 LINE SMOOTH",
"134 32 OFFCURVE",
"219 -14 OFFCURVE",
"315 -14 CURVE SMOOTH"
);
},
{
closed = 1;
nodes = (
"451 560 OFFCURVE",
"430 602 OFFCURVE",
"430 666 CURVE SMOOTH",
"430 796 OFFCURVE",
"466 831 OFFCURVE",
"508 831 CURVE SMOOTH",
"550 831 OFFCURVE",
"558 780 OFFCURVE",
"558 729 CURVE SMOOTH",
"558 640 OFFCURVE",
"548 560 OFFCURVE",
"486 560 CURVE SMOOTH"
);
}
);
width = 953;
}
);
category = Letter;
},
{
glyphname = alt_ba_ahom;
lastChange = "2019-03-13 13:52:43 +0000";
layers = (
{
layerId = UUID0;
paths = (
{
closed = 1;
nodes = (
"179 550 OFFCURVE",
"60 387 OFFCURVE",
"60 195 CURVE SMOOTH",
"60 122 OFFCURVE",
"94 -4 OFFCURVE",
"253 -4 CURVE SMOOTH",
"397 -4 OFFCURVE",
"539 152 OFFCURVE",
"539 341 CURVE SMOOTH",
"539 467 OFFCURVE",
"466 550 OFFCURVE",
"350 550 CURVE SMOOTH"
);
},
{
closed = 1;
nodes = (
"178 68 OFFCURVE",
"150 135 OFFCURVE",
"150 218 CURVE SMOOTH",
"150 336 OFFCURVE",
"213 470 OFFCURVE",
"330 470 CURVE SMOOTH",
"422 470 OFFCURVE",
"445 385 OFFCURVE",
"445 317 CURVE SMOOTH",
"445 181 OFFCURVE",
"368 68 OFFCURVE",
"252 68 CURVE SMOOTH"
);
}
);
width = 619;
}
);
unicode = 1171A;
script = "";
category = Letter;
},
{
glyphname = medialLa_ahom;
lastChange = "2019-03-13 13:52:26 +0000";
layers = (
{
layerId = UUID0;
paths = (
{
closed = 1;
nodes = (
"-361 -303 OFFCURVE",
"-235 -259 OFFCURVE",
"-169 -171 CURVE SMOOTH",
"-152 -149 OFFCURVE",
"-138 -124 OFFCURVE",
"-137 -95 CURVE SMOOTH",
"-137 -81 OFFCURVE",
"-155 -70 OFFCURVE",
"-177 -70 CURVE SMOOTH",
"-199 -70 OFFCURVE",
"-221 -76 OFFCURVE",
"-227 -93 CURVE SMOOTH",
"-260 -185 OFFCURVE",
"-376 -226 OFFCURVE",
"-488 -226 CURVE SMOOTH",
"-640 -226 OFFCURVE",
"-731 -160 OFFCURVE",
"-785 -109 CURVE SMOOTH",
"-791 -104 OFFCURVE",
"-804 -96 OFFCURVE",
"-810 -96 CURVE SMOOTH",
"-835 -96 OFFCURVE",
"-841 -113 OFFCURVE",
"-841 -129 CURVE SMOOTH",
"-841 -176 OFFCURVE",
"-698 -303 OFFCURVE",
"-488 -303 CURVE SMOOTH"
);
}
);
width = 0;
}
);
unicode = 1171D;
category = Mark;
},
{
glyphname = medialLa_ahom.sm;
lastChange = "2019-03-13 13:52:26 +0000";
layers = (
{
layerId = UUID0;
paths = (
{
closed = 1;
nodes = (
"-291 -303 OFFCURVE",
"-206 -268 OFFCURVE",
"-152 -187 CURVE SMOOTH",
"-134 -161 OFFCURVE",
"-122 -117 OFFCURVE",
"-122 -98 CURVE SMOOTH",
"-122 -79 OFFCURVE",
"-138 -70 OFFCURVE",
"-162 -70 CURVE SMOOTH",
"-181 -70 OFFCURVE",
"-202 -79 OFFCURVE",
"-207 -98 CURVE SMOOTH",
"-234 -201 OFFCURVE",
"-315 -226 OFFCURVE",
"-383 -226 CURVE SMOOTH",
"-508 -226 OFFCURVE",
"-551 -165 OFFCURVE",
"-579 -125 CURVE SMOOTH",
"-589 -110 OFFCURVE",
"-599 -96 OFFCURVE",
"-616 -96 CURVE SMOOTH",
"-641 -96 OFFCURVE",
"-647 -113 OFFCURVE",
"-647 -129 CURVE SMOOTH",
"-647 -168 OFFCURVE",
"-562 -303 OFFCURVE",
"-381 -303 CURVE SMOOTH"
);
}
);
width = 0;
}
);
category = Mark;
},
{
glyphname = medialRa_ahom;
lastChange = "2019-03-13 13:52:43 +0000";
layers = (
{
layerId = UUID0;
paths = (
{
closed = 1;
nodes = (
"-441 -303 OFFCURVE",
"-286 -260 OFFCURVE",
"-197 -184 CURVE SMOOTH",
"-170 -161 OFFCURVE",
"-138 -122 OFFCURVE",
"-138 -95 CURVE SMOOTH",
"-138 -77 OFFCURVE",
"-156 -70 OFFCURVE",
"-177 -70 CURVE SMOOTH",
"-212 -70 OFFCURVE",
"-220 -82 OFFCURVE",
"-227 -93 CURVE SMOOTH",
"-286 -186 OFFCURVE",
"-429 -226 OFFCURVE",
"-615 -226 CURVE SMOOTH",
"-765 -226 OFFCURVE",
"-1111 -170 OFFCURVE",
"-1111 251 CURVE SMOOTH",
"-1111 590 OFFCURVE",
"-907 733 OFFCURVE",
"-620 733 CURVE SMOOTH",
"-448 733 OFFCURVE",
"-351 704 OFFCURVE",
"-292 678 CURVE SMOOTH",
"-276 671 OFFCURVE",
"-265 667 OFFCURVE",
"-254 667 CURVE SMOOTH",
"-240 667 OFFCURVE",
"-225 679 OFFCURVE",
"-225 696 CURVE SMOOTH",
"-225 712 OFFCURVE",
"-233 720 OFFCURVE",
"-247 728 CURVE SMOOTH",
"-303 760 OFFCURVE",
"-439 800 OFFCURVE",
"-609 800 CURVE SMOOTH",
"-1068 800 OFFCURVE",
"-1205 466 OFFCURVE",
"-1205 249 CURVE SMOOTH",
"-1205 -246 OFFCURVE",
"-777 -303 OFFCURVE",
"-621 -303 CURVE SMOOTH"
);
}
);
width = 0;
}
);
unicode = 1171E;
category = Mark;
},
{
glyphname = medialRa_ahom.sm;
lastChange = "2019-03-13 13:52:43 +0000";
layers = (
{
layerId = UUID0;
paths = (
{
closed = 1;
nodes = (
"-372 -303 OFFCURVE",
"-255 -263 OFFCURVE",
"-190 -194 CURVE SMOOTH",
"-163 -165 OFFCURVE",
"-137 -123 OFFCURVE",
"-137 -95 CURVE SMOOTH",
"-137 -79 OFFCURVE",
"-150 -70 OFFCURVE",
"-181 -70 CURVE SMOOTH",
"-206 -70 OFFCURVE",
"-220 -78 OFFCURVE",
"-228 -96 CURVE SMOOTH",
"-272 -195 OFFCURVE",
"-380 -226 OFFCURVE",
"-458 -226 CURVE SMOOTH",
"-719 -226 OFFCURVE",
"-796 27 OFFCURVE",
"-796 251 CURVE SMOOTH",
"-796 580 OFFCURVE",
"-619 733 OFFCURVE",
"-410 733 CURVE SMOOTH",
"-283 733 OFFCURVE",
"-218 712 OFFCURVE",
"-184 700 CURVE SMOOTH",
"-171 695 OFFCURVE",
"-161 693 OFFCURVE",
"-151 693 CURVE SMOOTH",
"-135 693 OFFCURVE",
"-122 703 OFFCURVE",
"-122 720 CURVE SMOOTH",
"-122 736 OFFCURVE",
"-129 745 OFFCURVE",
"-144 752 CURVE SMOOTH",
"-202 778 OFFCURVE",
"-286 800 OFFCURVE",
"-402 800 CURVE SMOOTH",
"-679 800 OFFCURVE",
"-890 552 OFFCURVE",
"-890 249 CURVE SMOOTH",
"-890 -20 OFFCURVE",
"-757 -303 OFFCURVE",
"-455 -303 CURVE SMOOTH"
);
}
);
width = 0;
}
);
category = Mark;
},
{
glyphname = medialRa_ahom.desc;
lastChange = "2019-03-13 13:52:43 +0000";
layers = (
{
layerId = UUID0;
paths = (
{
closed = 1;
nodes = (
"-441 -440 OFFCURVE",
"-299 -421 OFFCURVE",
"-197 -334 CURVE SMOOTH",
"-170 -311 OFFCURVE",
"-138 -272 OFFCURVE",
"-138 -245 CURVE SMOOTH",
"-138 -227 OFFCURVE",
"-156 -220 OFFCURVE",
"-179 -220 CURVE SMOOTH",
"-201 -220 OFFCURVE",
"-215 -227 OFFCURVE",
"-227 -243 CURVE SMOOTH",
"-299 -336 OFFCURVE",
"-429 -363 OFFCURVE",
"-551 -363 CURVE SMOOTH",
"-790 -363 OFFCURVE",
"-1111 -239 OFFCURVE",
"-1111 174 CURVE SMOOTH",
"-1111 580 OFFCURVE",
"-887 733 OFFCURVE",
"-578 733 CURVE SMOOTH",
"-418 733 OFFCURVE",
"-313 697 OFFCURVE",
"-262 679 CURVE SMOOTH",
"-246 673 OFFCURVE",
"-235 669 OFFCURVE",
"-223 669 CURVE SMOOTH",
"-206 669 OFFCURVE",
"-195 680 OFFCURVE",
"-195 696 CURVE SMOOTH",
"-195 712 OFFCURVE",
"-203 720 OFFCURVE",
"-217 728 CURVE SMOOTH",
"-261 753 OFFCURVE",
"-388 800 OFFCURVE",
"-579 800 CURVE SMOOTH",
"-1038 800 OFFCURVE",
"-1205 474 OFFCURVE",
"-1205 180 CURVE SMOOTH",
"-1205 -336 OFFCURVE",
"-777 -440 OFFCURVE",
"-554 -440 CURVE SMOOTH"
);
}
);
width = 0;
}
);
category = Mark;
},
{
glyphname = medialLigaRa_ahom;
lastChange = "2019-03-13 13:52:33 +0000";
layers = (
{
layerId = UUID0;
paths = (
{
closed = 1;
nodes = (
"221 630 OFFCURVE",
"238 667 OFFCURVE",
"238 683 CURVE SMOOTH",
"238 693 OFFCURVE",
"231 705 OFFCURVE",
"222 720 CURVE SMOOTH",
"208 744 OFFCURVE",
"189 777 OFFCURVE",
"189 822 CURVE SMOOTH",
"189 885 OFFCURVE",
"217 915 OFFCURVE",
"262 915 CURVE SMOOTH",
"279 915 OFFCURVE",
"290 912 OFFCURVE",
"301 909 CURVE SMOOTH",
"312 906 OFFCURVE",
"320 904 OFFCURVE",
"333 904 CURVE SMOOTH",
"350 904 OFFCURVE",
"360 919 OFFCURVE",
"360 940 CURVE SMOOTH",
"360 965 OFFCURVE",
"305 975 OFFCURVE",
"260 975 CURVE SMOOTH",
"169 975 OFFCURVE",
"100 910 OFFCURVE",
"100 820 CURVE SMOOTH",
"100 722 OFFCURVE",
"176 630 OFFCURVE",
"200 630 CURVE SMOOTH"
);
}
);
width = 0;
}
);
unicode = 1171F;
category = Mark;
},
{
glyphname = aSign_ahom;
lastChange = "2019-03-13 13:49:46 +0000";
layers = (
{
layerId = UUID0;
paths = (
{
closed = 1;
nodes = (
"112 380 OFFCURVE",
"174 491 OFFCURVE",
"189 538 CURVE SMOOTH",
"200 572 OFFCURVE",
"205 604 OFFCURVE",
"205 639 CURVE SMOOTH",
"205 671 OFFCURVE",
"198 700 OFFCURVE",
"162 700 CURVE SMOOTH",
"142 700 OFFCURVE",
"134 691 OFFCURVE",
"134 669 CURVE SMOOTH",
"134 581 OFFCURVE",
"91 501 OFFCURVE",
"16 463 CURVE SMOOTH",
"6 458 OFFCURVE",
"0 453 OFFCURVE",
"0 441 CURVE SMOOTH",
"0 417 OFFCURVE",
"25 380 OFFCURVE",
"46 380 CURVE SMOOTH"
);
},
{
closed = 1;
nodes = (
"85 -75 OFFCURVE",
"96 -61 OFFCURVE",
"106 -47 CURVE SMOOTH",
"132 -11 OFFCURVE",
"170 45 OFFCURVE",
"170 112 CURVE SMOOTH",
"170 181 OFFCURVE",
"112 250 OFFCURVE",
"46 250 CURVE SMOOTH",
"25 250 OFFCURVE",
"0 213 OFFCURVE",
"0 189 CURVE SMOOTH",
"0 177 OFFCURVE",
"6 171 OFFCURVE",
"16 167 CURVE SMOOTH",
"72 145 OFFCURVE",
"80 105 OFFCURVE",
"80 80 CURVE SMOOTH",
"80 54 OFFCURVE",
"67 29 OFFCURVE",
"53 6 CURVE SMOOTH",
"41 -13 OFFCURVE",
"32 -32 OFFCURVE",
"32 -50 CURVE SMOOTH",
"32 -69 OFFCURVE",
"47 -75 OFFCURVE",
"58 -75 CURVE SMOOTH"
);
}
);
width = 255;
}
);
unicode = 11720;
category = Letter;
},
{
glyphname = aaSign_ahom;
lastChange = "2019-03-13 13:49:46 +0000";
layers = (
{
layerId = UUID0;
paths = (
{
closed = 1;
nodes = (
"316 -240 OFFCURVE",
"414 -214 OFFCURVE",
"414 -175 CURVE SMOOTH",
"414 -161 OFFCURVE",
"402 -152 OFFCURVE",
"385 -152 CURVE SMOOTH",
"380 -152 OFFCURVE",
"375 -153 OFFCURVE",
"371 -155 CURVE SMOOTH",
"334 -172 OFFCURVE",
"302 -178 OFFCURVE",
"258 -178 CURVE SMOOTH",
"196 -178 OFFCURVE",
"154 -141 OFFCURVE",
"154 -30 CURVE SMOOTH",
"154 370 LINE SMOOTH",
"154 501 OFFCURVE",
"86 560 OFFCURVE",
"-29 560 CURVE SMOOTH",
"-61 560 OFFCURVE",
"-80 545 OFFCURVE",
"-80 514 CURVE SMOOTH",
"-80 487 OFFCURVE",
"-56 477 OFFCURVE",
"-32 477 CURVE SMOOTH",
"35 477 OFFCURVE",
"64 458 OFFCURVE",
"64 349 CURVE SMOOTH",
"64 -34 LINE SMOOTH",
"64 -167 OFFCURVE",
"134 -240 OFFCURVE",
"267 -240 CURVE SMOOTH"
);
}
);
width = 264;
}
);
unicode = 11721;
category = Letter;
},
{
glyphname = iSign_ahom;
lastChange = "2019-03-13 13:52:17 +0000";
layers = (
{
layerId = UUID0;
paths = (
{
closed = 1;
nodes = (
"129 490 OFFCURVE",
"231 599 OFFCURVE",
"231 770 CURVE SMOOTH",
"231 880 OFFCURVE",
"186 968 OFFCURVE",
"98 968 CURVE SMOOTH",
"-27 968 OFFCURVE",
"-100 807 OFFCURVE",
"-100 701 CURVE SMOOTH",
"-100 556 OFFCURVE",
"-43 490 OFFCURVE",
"33 490 CURVE SMOOTH"
);
},
{
closed = 1;
nodes = (
"8 554 OFFCURVE",
"-18 607 OFFCURVE",
"-18 691 CURVE SMOOTH",
"-18 859 OFFCURVE",
"28 904 OFFCURVE",
"83 904 CURVE SMOOTH",
"137 904 OFFCURVE",
"149 839 OFFCURVE",
"149 772 CURVE SMOOTH",
"149 656 OFFCURVE",
"135 554 OFFCURVE",
"53 554 CURVE SMOOTH"
);
}
);
width = 0;
}
);
unicode = 11722;
category = Mark;
},
{
glyphname = iiSign_ahom;
lastChange = "2019-03-13 13:52:17 +0000";
layers = (
{
layerId = UUID0;
paths = (
{
closed = 1;
nodes = (
"129 490 OFFCURVE",
"231 599 OFFCURVE",
"231 770 CURVE SMOOTH",
"231 880 OFFCURVE",
"186 968 OFFCURVE",
"98 968 CURVE SMOOTH",
"-27 968 OFFCURVE",
"-100 807 OFFCURVE",
"-100 701 CURVE SMOOTH",
"-100 556 OFFCURVE",
"-43 490 OFFCURVE",
"33 490 CURVE SMOOTH"
);
},
{
closed = 1;
nodes = (
"8 554 OFFCURVE",
"-18 607 OFFCURVE",
"-18 691 CURVE SMOOTH",
"-18 698 OFFCURVE",
"-18 705 OFFCURVE",
"-17 712 CURVE",
"147 712 LINE",
"142 623 OFFCURVE",
"120 554 OFFCURVE",
"53 554 CURVE SMOOTH"
);
},
{
closed = 1;
nodes = (
"-2 873 OFFCURVE",
"37 904 OFFCURVE",
"83 904 CURVE SMOOTH",
"137 904 OFFCURVE",
"149 839 OFFCURVE",
"149 772 CURVE SMOOTH",
"149 765 LINE",
"-14 765 LINE"
);
}
);
width = 0;
}
);
unicode = 11723;
category = Mark;
},
{
glyphname = uSign_ahom;
lastChange = "2019-03-13 13:52:07 +0000";
layers = (
{
layerId = UUID0;
paths = (
{
closed = 1;
nodes = (
"42 -330 OFFCURVE",
"140 -304 OFFCURVE",
"140 -265 CURVE SMOOTH",
"140 -251 OFFCURVE",
"128 -242 OFFCURVE",
"111 -242 CURVE SMOOTH",
"106 -242 OFFCURVE",
"101 -243 OFFCURVE",
"97 -245 CURVE SMOOTH",
"60 -262 OFFCURVE",
"28 -268 OFFCURVE",
"-16 -268 CURVE SMOOTH",
"-78 -268 OFFCURVE",
"-120 -241 OFFCURVE",
"-120 -130 CURVE SMOOTH",
"-120 -95 LINE SMOOTH",
"-120 -78 OFFCURVE",
"-143 -70 OFFCURVE",
"-165 -70 CURVE SMOOTH",
"-188 -70 OFFCURVE",
"-210 -78 OFFCURVE",
"-210 -95 CURVE SMOOTH",
"-210 -134 LINE SMOOTH",
"-210 -295 OFFCURVE",
"-99 -330 OFFCURVE",
"-7 -330 CURVE SMOOTH"
);
}
);
width = 0;
}
);
unicode = 11724;
category = Mark;
},
{
glyphname = uuSign_ahom;
lastChange = "2019-03-13 13:52:07 +0000";
layers = (
{
layerId = UUID0;
paths = (
{
closed = 1;
nodes = (
"42 -330 OFFCURVE",
"140 -304 OFFCURVE",
"140 -265 CURVE SMOOTH",
"140 -251 OFFCURVE",
"128 -242 OFFCURVE",
"111 -242 CURVE SMOOTH",
"106 -242 OFFCURVE",
"101 -243 OFFCURVE",
"97 -245 CURVE SMOOTH",
"60 -262 OFFCURVE",
"28 -268 OFFCURVE",
"-16 -268 CURVE SMOOTH",
"-78 -268 OFFCURVE",
"-120 -241 OFFCURVE",
"-120 -130 CURVE SMOOTH",
"-120 -95 LINE SMOOTH",
"-120 -78 OFFCURVE",
"-143 -70 OFFCURVE",
"-165 -70 CURVE SMOOTH",
"-188 -70 OFFCURVE",
"-210 -78 OFFCURVE",
"-210 -95 CURVE SMOOTH",
"-210 -134 LINE SMOOTH",
"-210 -295 OFFCURVE",
"-99 -330 OFFCURVE",
"-7 -330 CURVE SMOOTH"
);
},
{
closed = 1;
nodes = (
"39 -463 OFFCURVE",
"89 -452 OFFCURVE",
"127 -431 CURVE SMOOTH",
"171 -407 OFFCURVE",
"205 -375 OFFCURVE",
"205 -362 CURVE SMOOTH",
"205 -348 OFFCURVE",
"184 -319 OFFCURVE",
"167 -319 CURVE SMOOTH",
"161 -319 OFFCURVE",
"151 -326 OFFCURVE",
"137 -336 CURVE SMOOTH",
"106 -358 OFFCURVE",
"54 -394 OFFCURVE",
"-23 -394 CURVE SMOOTH",
"-90 -394 OFFCURVE",
"-144 -370 OFFCURVE",
"-159 -360 CURVE SMOOTH",
"-164 -357 OFFCURVE",
"-168 -356 OFFCURVE",
"-171 -356 CURVE SMOOTH",
"-183 -356 OFFCURVE",
"-192 -369 OFFCURVE",
"-192 -381 CURVE SMOOTH",
"-192 -398 OFFCURVE",
"-111 -463 OFFCURVE",
"-13 -463 CURVE SMOOTH"
);
}
);
width = 0;
}
);
unicode = 11725;
category = Mark;
},
{
glyphname = eSign_ahom;
lastChange = "2019-03-13 13:49:46 +0000";
layers = (
{
layerId = UUID0;
paths = (
{
closed = 1;
nodes = (
"314 -14 OFFCURVE",
"325 -5 OFFCURVE",
"335 23 CURVE SMOOTH",
"640 861 LINE SMOOTH",
"642 866 OFFCURVE",
"650 886 OFFCURVE",
"650 900 CURVE SMOOTH",
"650 921 OFFCURVE",
"633 934 OFFCURVE",
"613 934 CURVE SMOOTH",
"594 934 OFFCURVE",
"581 925 OFFCURVE",
"571 897 CURVE SMOOTH",
"399 423 LINE",
"362 503 OFFCURVE",
"287 560 OFFCURVE",
"193 560 CURVE SMOOTH",
"78 560 OFFCURVE",
"20 488 OFFCURVE",
"20 409 CURVE SMOOTH",
"20 345 OFFCURVE",
"58 307 OFFCURVE",
"110 307 CURVE SMOOTH",
"152 307 OFFCURVE",
"173 333 OFFCURVE",
"173 366 CURVE SMOOTH",
"173 399 OFFCURVE",
"152 414 OFFCURVE",
"118 425 CURVE SMOOTH",
"106 429 OFFCURVE",
"97 434 OFFCURVE",
"97 447 CURVE SMOOTH",
"97 466 OFFCURVE",
"127 493 OFFCURVE",
"188 493 CURVE SMOOTH",
"273 493 OFFCURVE",
"348 431 OFFCURVE",
"372 255 CURVE",
"369 339 LINE",
"260 40 LINE SMOOTH",
"257 33 OFFCURVE",
"256 26 OFFCURVE",
"256 20 CURVE SMOOTH",
"256 -5 OFFCURVE",
"275 -14 OFFCURVE",
"295 -14 CURVE SMOOTH"
);
}
);
width = 630;
}
);
unicode = 11726;
category = Letter;
},
{
glyphname = awSign_ahom;
lastChange = "2019-03-13 13:52:43 +0000";
layers = (
{
layerId = UUID0;
paths = (
{
closed = 1;
nodes = (
"45 468 OFFCURVE",
"123 540 OFFCURVE",
"123 632 CURVE SMOOTH",
"123 657 OFFCURVE",
"119 680 OFFCURVE",
"115 702 CURVE SMOOTH",
"111 724 OFFCURVE",
"108 744 OFFCURVE",
"108 763 CURVE SMOOTH",
"108 816 OFFCURVE",
"144 835 OFFCURVE",
"187 835 CURVE SMOOTH",
"229 835 OFFCURVE",
"260 827 OFFCURVE",
"281 818 CURVE SMOOTH",
"295 812 OFFCURVE",
"305 809 OFFCURVE",
"314 809 CURVE SMOOTH",
"327 809 OFFCURVE",
"335 828 OFFCURVE",
"335 844 CURVE SMOOTH",
"335 873 OFFCURVE",
"253 895 OFFCURVE",
"193 895 CURVE SMOOTH",
"84 895 OFFCURVE",
"20 827 OFFCURVE",
"20 744 CURVE SMOOTH",
"20 723 OFFCURVE",
"23 702 OFFCURVE",
"28 681 CURVE SMOOTH",
"33 660 OFFCURVE",
"36 642 OFFCURVE",
"36 623 CURVE SMOOTH",
"36 586 OFFCURVE",
"24 565 OFFCURVE",
"-10 542 CURVE SMOOTH",
"-24 533 OFFCURVE",
"-37 524 OFFCURVE",
"-37 512 CURVE SMOOTH",
"-37 496 OFFCURVE",
"-23 468 OFFCURVE",
"-2 468 CURVE SMOOTH"
);
}
);
width = 0;
}
);
unicode = 11727;
category = Mark;
},
{
glyphname = oSign_ahom;
lastChange = "2019-03-13 13:52:07 +0000";
layers = (
{
layerId = UUID0;
paths = (
{
closed = 1;
nodes = (
"-129 -345 OFFCURVE",
"-50 -284 OFFCURVE",
"-50 -180 CURVE SMOOTH",
"-50 -99 OFFCURVE",
"-95 -44 OFFCURVE",
"-179 -44 CURVE SMOOTH",
"-275 -44 OFFCURVE",
"-334 -122 OFFCURVE",
"-334 -207 CURVE SMOOTH",
"-334 -307 OFFCURVE",
"-273 -345 OFFCURVE",
"-212 -345 CURVE SMOOTH"
);
},
{
closed = 1;
nodes = (
"-244 -300 OFFCURVE",
"-259 -257 OFFCURVE",
"-259 -195 CURVE SMOOTH",
"-259 -113 OFFCURVE",
"-227 -89 OFFCURVE",
"-181 -89 CURVE SMOOTH",
"-136 -89 OFFCURVE",
"-125 -129 OFFCURVE",
"-125 -178 CURVE SMOOTH",
"-125 -240 OFFCURVE",
"-138 -300 OFFCURVE",
"-198 -300 CURVE SMOOTH"
);
}
);
width = 0;
}
);
unicode = 11728;
category = Mark;
},
{
glyphname = aiSign_ahom;
lastChange = "2019-03-13 13:52:43 +0000";
layers = (
{
layerId = UUID0;
paths = (
{
closed = 1;
nodes = (
"32 469 OFFCURVE",
"87 505 OFFCURVE",
"154 557 CURVE SMOOTH",
"229 616 OFFCURVE",
"261 676 OFFCURVE",
"261 747 CURVE SMOOTH",
"261 830 OFFCURVE",
"202 888 OFFCURVE",
"107 888 CURVE SMOOTH",
"5 888 OFFCURVE",
"-40 811 OFFCURVE",
"-40 749 CURVE SMOOTH",
"-40 702 OFFCURVE",
"-16 665 OFFCURVE",
"36 665 CURVE SMOOTH",
"71 665 OFFCURVE",
"98 684 OFFCURVE",
"98 710 CURVE SMOOTH",
"98 742 OFFCURVE",
"84 757 OFFCURVE",
"49 765 CURVE SMOOTH",
"37 768 OFFCURVE",
"31 772 OFFCURVE",
"31 783 CURVE SMOOTH",
"31 804 OFFCURVE",
"55 824 OFFCURVE",
"103 824 CURVE SMOOTH",
"147 824 OFFCURVE",
"176 795 OFFCURVE",
"176 739 CURVE SMOOTH",
"176 677 OFFCURVE",
"120 619 OFFCURVE",
"41 570 CURVE SMOOTH",
"7 549 OFFCURVE",
"-20 531 OFFCURVE",
"-20 511 CURVE SMOOTH",
"-20 495 OFFCURVE",
"1 469 OFFCURVE",
"17 469 CURVE SMOOTH"
);
}
);
width = 0;
}
);
unicode = 11729;
category = Mark;
},
{
glyphname = amSign_ahom;
lastChange = "2019-03-13 13:52:33 +0000";
layers = (
{
layerId = UUID0;
paths = (
{
closed = 1;
nodes = (
"-109 630 OFFCURVE",
"-30 678 OFFCURVE",
"-30 770 CURVE SMOOTH",
"-30 851 OFFCURVE",
"-85 906 OFFCURVE",
"-169 906 CURVE SMOOTH",
"-265 906 OFFCURVE",
"-324 843 OFFCURVE",
"-324 766 CURVE SMOOTH",
"-324 671 OFFCURVE",
"-253 630 OFFCURVE",
"-181 630 CURVE SMOOTH"
);
},
{
closed = 1;
nodes = (
"-224 675 OFFCURVE",
"-249 708 OFFCURVE",
"-249 770 CURVE SMOOTH",
"-249 827 OFFCURVE",
"-217 861 OFFCURVE",
"-171 861 CURVE SMOOTH",
"-126 861 OFFCURVE",
"-105 821 OFFCURVE",
"-105 772 CURVE SMOOTH",
"-105 732 OFFCURVE",
"-118 675 OFFCURVE",
"-178 675 CURVE SMOOTH"
);
}
);
width = 0;
}
);
unicode = 1172A;
category = Mark;
},
{
glyphname = virama_ahom;
lastChange = "2019-03-13 13:52:33 +0000";
layers = (
{
layerId = UUID0;
paths = (
{
closed = 1;
nodes = (
"-185 853 OFFCURVE",
"-294 781 OFFCURVE",
"-294 673 CURVE SMOOTH",
"-294 641 OFFCURVE",
"-279 634 OFFCURVE",
"-266 634 CURVE SMOOTH",
"-242 634 OFFCURVE",
"-223 666 OFFCURVE",
"-195 706 CURVE SMOOTH",
"-166 747 OFFCURVE",
"-119 791 OFFCURVE",
"-55 791 CURVE SMOOTH",
"-33 791 OFFCURVE",
"-6 788 OFFCURVE",
"18 776 CURVE SMOOTH",
"32 769 OFFCURVE",
"41 765 OFFCURVE",
"49 765 CURVE SMOOTH",
"63 765 OFFCURVE",
"75 775 OFFCURVE",
"75 790 CURVE SMOOTH",
"75 828 OFFCURVE",
"-2 853 OFFCURVE",
"-72 853 CURVE SMOOTH"
);
}
);
width = 0;
}
);
unicode = 1172B;
category = Mark;
},
{
glyphname = zero_ahom;
lastChange = "2019-03-13 13:49:46 +0000";
layers = (
{
layerId = UUID0;
paths = (
{
closed = 1;
nodes = (
"405 -12 OFFCURVE",
"543 161 OFFCURVE",
"543 344 CURVE SMOOTH",
"543 463 OFFCURVE",
"489 560 OFFCURVE",
"368 560 CURVE SMOOTH",
"221 560 OFFCURVE",
"80 390 OFFCURVE",
"80 204 CURVE SMOOTH",
"80 85 OFFCURVE",
"134 -12 OFFCURVE",
"255 -12 CURVE SMOOTH"
);
},
{
closed = 1;
nodes = (
"214 65 OFFCURVE",
"174 122 OFFCURVE",
"174 224 CURVE SMOOTH",
"174 378 OFFCURVE",
"217 480 OFFCURVE",
"332 480 CURVE SMOOTH",
"409 480 OFFCURVE",
"449 426 OFFCURVE",
"449 324 CURVE SMOOTH",
"449 186 OFFCURVE",
"411 65 OFFCURVE",
"284 65 CURVE SMOOTH"
);
}
);
width = 623;
}
);
unicode = 11730;
category = Letter;
},
{
glyphname = one_ahom;
lastChange = "2019-03-13 13:49:46 +0000";
layers = (
{
layerId = UUID0;
paths = (
{
closed = 1;
nodes = (
"644 -45 OFFCURVE",
"662 -8 OFFCURVE",
"662 16 CURVE SMOOTH",
"662 28 OFFCURVE",
"657 38 OFFCURVE",
"646 38 CURVE SMOOTH",
"604 39 OFFCURVE",
"598 65 OFFCURVE",
"598 132 CURVE SMOOTH",
"598 276 LINE SMOOTH",
"598 328 OFFCURVE",
"554 431 OFFCURVE",
"447 431 CURVE SMOOTH",
"412 431 OFFCURVE",
"394 394 OFFCURVE",
"394 370 CURVE SMOOTH",
"394 358 OFFCURVE",
"399 348 OFFCURVE",
"410 348 CURVE SMOOTH",
"427 348 LINE SMOOTH",
"502 348 OFFCURVE",
"508 268 OFFCURVE",
"508 254 CURVE SMOOTH",
"508 86 LINE SMOOTH",
"508 37 OFFCURVE",
"519 -45 OFFCURVE",
"609 -45 CURVE SMOOTH"
);
},
{
closed = 1;
nodes = (
"135 43 OFFCURVE",
"231 124 OFFCURVE",
"231 202 CURVE SMOOTH",
"231 266 OFFCURVE",
"194 350 OFFCURVE",
"117 350 CURVE SMOOTH",
"96 350 OFFCURVE",
"71 313 OFFCURVE",
"71 289 CURVE SMOOTH",
"71 277 OFFCURVE",
"77 271 OFFCURVE",
"87 267 CURVE SMOOTH",
"122 254 OFFCURVE",
"147 226 OFFCURVE",
"147 199 CURVE SMOOTH",
"147 156 OFFCURVE",
"106 134 OFFCURVE",
"70 118 CURVE SMOOTH",
"43 106 OFFCURVE",
"20 94 OFFCURVE",
"20 77 CURVE SMOOTH",
"20 44 OFFCURVE",
"46 43 OFFCURVE",
"61 43 CURVE SMOOTH"
);
},
{
closed = 1;
nodes = (
"345 5 OFFCURVE",
"356 19 OFFCURVE",
"366 33 CURVE SMOOTH",
"392 69 OFFCURVE",
"439 135 OFFCURVE",
"439 192 CURVE SMOOTH",
"439 241 OFFCURVE",
"400 340 OFFCURVE",
"315 340 CURVE SMOOTH",
"294 340 OFFCURVE",
"269 303 OFFCURVE",
"269 279 CURVE SMOOTH",
"269 267 OFFCURVE",
"275 261 OFFCURVE",
"285 257 CURVE SMOOTH",
"341 236 OFFCURVE",
"349 195 OFFCURVE",
"349 170 CURVE SMOOTH",
"349 144 OFFCURVE",
"334 117 OFFCURVE",
"318 91 CURVE SMOOTH",
"304 69 OFFCURVE",
"292 48 OFFCURVE",
"292 30 CURVE SMOOTH",
"292 11 OFFCURVE",
"307 5 OFFCURVE",
"318 5 CURVE SMOOTH"
);
},
{
closed = 1;
nodes = (
"219 403 OFFCURVE",
"288 432 OFFCURVE",
"320 451 CURVE SMOOTH",
"403 501 OFFCURVE",
"480 578 OFFCURVE",
"480 661 CURVE SMOOTH",
"480 696 OFFCURVE",
"465 706 OFFCURVE",
"450 706 CURVE SMOOTH",
"443 706 OFFCURVE",
"429 700 OFFCURVE",
"420 676 CURVE SMOOTH",
"388 591 OFFCURVE",
"280 506 OFFCURVE",
"179 495 CURVE SMOOTH",
"158 493 OFFCURVE",
"149 483 OFFCURVE",
"149 469 CURVE SMOOTH",
"149 453 OFFCURVE",
"154 403 OFFCURVE",
"177 403 CURVE SMOOTH"
);
}
);
width = 682;
}
);
unicode = 11731;
category = Letter;
},
{
glyphname = four_ahom;
lastChange = "2019-03-13 13:49:46 +0000";
layers = (
{
components = (
{
name = sa_ahom;
}
);
layerId = UUID0;
paths = (
{
closed = 1;
nodes = (
"1154 490 OFFCURVE",
"1256 599 OFFCURVE",
"1256 770 CURVE SMOOTH",
"1256 880 OFFCURVE",
"1211 968 OFFCURVE",
"1123 968 CURVE SMOOTH",
"998 968 OFFCURVE",
"925 807 OFFCURVE",
"925 701 CURVE SMOOTH",
"925 556 OFFCURVE",
"982 490 OFFCURVE",
"1058 490 CURVE SMOOTH"
);
},
{
closed = 1;
nodes = (
"1033 554 OFFCURVE",
"1007 607 OFFCURVE",
"1007 691 CURVE SMOOTH",
"1007 698 OFFCURVE",
"1007 705 OFFCURVE",
"1008 712 CURVE",
"1172 712 LINE",
"1167 623 OFFCURVE",
"1145 554 OFFCURVE",
"1078 554 CURVE SMOOTH"
);
},
{
closed = 1;
nodes = (
"1023 873 OFFCURVE",
"1062 904 OFFCURVE",
"1108 904 CURVE SMOOTH",
"1162 904 OFFCURVE",
"1174 839 OFFCURVE",
"1174 772 CURVE SMOOTH",
"1174 765 LINE",
"1011 765 LINE"
);
}
);
width = 1256;
}
);
unicode = 11734;
category = Letter;
},
{
glyphname = six_ahom;
lastChange = "2019-03-13 13:49:46 +0000";
layers = (
{
layerId = UUID0;
paths = (
{
closed = 1;
nodes = (
"600 -222 OFFCURVE",
"743 -128 OFFCURVE",
"743 59 CURVE SMOOTH",
"743 172 OFFCURVE",
"694 207 OFFCURVE",
"637 207 CURVE SMOOTH",
"591 207 OFFCURVE",
"540 183 OFFCURVE",
"507 166 CURVE SMOOTH",
"490 157 OFFCURVE",
"478 152 OFFCURVE",
"473 152 CURVE SMOOTH",
"464 152 OFFCURVE",
"454 160 OFFCURVE",
"454 183 CURVE SMOOTH",
"454 197 LINE",
"562 381 OFFCURVE",
"635 381 OFFCURVE",
"654 381 CURVE SMOOTH",
"666 381 OFFCURVE",
"679 378 OFFCURVE",
"692 375 CURVE SMOOTH",
"703 372 OFFCURVE",
"713 370 OFFCURVE",
"722 370 CURVE SMOOTH",
"748 370 OFFCURVE",
"784 386 OFFCURVE",
"784 431 CURVE SMOOTH",
"784 462 OFFCURVE",
"758 477 OFFCURVE",
"722 477 CURVE SMOOTH",
"670 477 OFFCURVE",
"575 445 OFFCURVE",
"454 285 CURVE",
"454 315 LINE SMOOTH",
"454 367 OFFCURVE",
"450 470 OFFCURVE",
"343 470 CURVE SMOOTH",
"308 470 OFFCURVE",
"290 433 OFFCURVE",
"290 409 CURVE SMOOTH",
"290 397 OFFCURVE",
"295 387 OFFCURVE",
"306 387 CURVE SMOOTH",
"313 387 LINE SMOOTH",
"361 387 OFFCURVE",
"364 339 OFFCURVE",
"364 293 CURVE SMOOTH",
"364 152 LINE SMOOTH",
"364 93 OFFCURVE",
"392 80 OFFCURVE",
"417 80 CURVE SMOOTH",
"450 80 OFFCURVE",
"475 93 OFFCURVE",
"502 107 CURVE SMOOTH",
"528 120 OFFCURVE",
"554 133 OFFCURVE",
"589 133 CURVE SMOOTH",
"619 133 OFFCURVE",
"649 116 OFFCURVE",
"649 47 CURVE SMOOTH",
"649 -100 OFFCURVE",
"516 -145 OFFCURVE",
"447 -145 CURVE SMOOTH",
"245 -145 OFFCURVE",
"174 27 OFFCURVE",
"174 262 CURVE SMOOTH",
"174 606 OFFCURVE",
"361 733 OFFCURVE",
"570 733 CURVE SMOOTH",
"685 733 OFFCURVE",
"749 713 OFFCURVE",
"784 701 CURVE SMOOTH",
"798 696 OFFCURVE",
"810 693 OFFCURVE",
"819 693 CURVE SMOOTH",
"834 693 OFFCURVE",
"848 702 OFFCURVE",
"848 720 CURVE SMOOTH",
"848 736 OFFCURVE",
"841 745 OFFCURVE",
"826 752 CURVE SMOOTH",
"768 778 OFFCURVE",
"684 800 OFFCURVE",
"583 800 CURVE SMOOTH",
"281 800 OFFCURVE",
"80 552 OFFCURVE",
"80 257 CURVE SMOOTH",
"80 -20 OFFCURVE",
"218 -222 OFFCURVE",
"435 -222 CURVE SMOOTH"
);
}
);
width = 848;
}
);
unicode = 11736;
category = Letter;
},
{
glyphname = seven_ahom;
lastChange = "2019-03-13 13:49:46 +0000";
layers = (
{
layerId = UUID0;
paths = (
{
closed = 1;
nodes = (
"964 -150 OFFCURVE",
"976 -132 OFFCURVE",
"976 -120 CURVE SMOOTH",
"976 -109 OFFCURVE",
"960 -97 OFFCURVE",
"923 -88 CURVE SMOOTH",
"880 -77 OFFCURVE",
"837 -51 OFFCURVE",
"837 60 CURVE SMOOTH",
"837 240 LINE SMOOTH",
"837 391 OFFCURVE",
"741 468 OFFCURVE",
"619 468 CURVE SMOOTH",
"611 468 OFFCURVE",
"603 467 OFFCURVE",
"595 466 CURVE",
"557 527 OFFCURVE",
"491 560 OFFCURVE",
"411 560 CURVE SMOOTH",
"260 560 OFFCURVE",
"122 420 OFFCURVE",
"38 260 CURVE SMOOTH",
"33 250 OFFCURVE",
"30 241 OFFCURVE",
"30 235 CURVE SMOOTH",
"30 224 OFFCURVE",
"45 210 OFFCURVE",
"63 210 CURVE SMOOTH",
"73 210 OFFCURVE",
"84 215 OFFCURVE",
"91 228 CURVE SMOOTH",
"189 414 OFFCURVE",
"320 478 OFFCURVE",
"397 478 CURVE SMOOTH",
"440 478 OFFCURVE",
"478 467 OFFCURVE",
"504 439 CURVE",
"405 393 OFFCURVE",
"314 296 OFFCURVE",
"314 194 CURVE SMOOTH",
"314 124 OFFCURVE",
"358 83 OFFCURVE",
"429 83 CURVE SMOOTH",
"527 83 OFFCURVE",
"629 167 OFFCURVE",
"629 332 CURVE SMOOTH",
"629 351 OFFCURVE",
"628 369 OFFCURVE",
"625 385 CURVE",
"706 380 OFFCURVE",
"747 341 OFFCURVE",
"747 237 CURVE SMOOTH",
"747 56 LINE SMOOTH",
"747 -105 OFFCURVE",
"858 -150 OFFCURVE",
"916 -150 CURVE SMOOTH"
);
},
{
closed = 1;
nodes = (
"404 142 OFFCURVE",
"372 150 OFFCURVE",
"372 189 CURVE SMOOTH",
"372 279 OFFCURVE",
"452 347 OFFCURVE",
"535 374 CURVE",
"537 360 OFFCURVE",
"539 345 OFFCURVE",
"539 329 CURVE SMOOTH",
"539 168 OFFCURVE",
"461 142 OFFCURVE",
"422 142 CURVE SMOOTH"
);
}
);
width = 996;
}
);
unicode = 11737;
category = Letter;
},
{
glyphname = eight_ahom;
lastChange = "2019-03-13 13:49:46 +0000";
layers = (
{
layerId = UUID0;
paths = (
{
closed = 1;
nodes = (
"1264 -150 OFFCURVE",
"1276 -132 OFFCURVE",
"1276 -120 CURVE SMOOTH",
"1276 -109 OFFCURVE",
"1260 -97 OFFCURVE",
"1223 -88 CURVE SMOOTH",
"1180 -77 OFFCURVE",
"1137 -51 OFFCURVE",
"1137 60 CURVE SMOOTH",
"1137 240 LINE SMOOTH",
"1137 388 OFFCURVE",
"1046 468 OFFCURVE",
"919 468 CURVE SMOOTH",
"909 468 OFFCURVE",
"898 467 OFFCURVE",
"888 466 CURVE",
"854 527 OFFCURVE",
"792 560 OFFCURVE",
"711 560 CURVE SMOOTH",
"661 560 OFFCURVE",
"605 543 OFFCURVE",
"550 513 CURVE",
"515 544 OFFCURVE",
"467 560 OFFCURVE",
"411 560 CURVE SMOOTH",
"260 560 OFFCURVE",
"125 420 OFFCURVE",
"38 260 CURVE SMOOTH",
"32 250 OFFCURVE",
"30 241 OFFCURVE",
"30 235 CURVE SMOOTH",
"30 224 OFFCURVE",
"45 210 OFFCURVE",
"63 210 CURVE SMOOTH",
"73 210 OFFCURVE",
"84 215 OFFCURVE",
"91 228 CURVE SMOOTH",
"189 414 OFFCURVE",
"320 478 OFFCURVE",
"397 478 CURVE SMOOTH",
"426 478 OFFCURVE",
"452 473 OFFCURVE",
"473 461 CURVE",
"395 395 OFFCURVE",
"334 311 OFFCURVE",
"334 203 CURVE SMOOTH",
"334 132 OFFCURVE",
"373 83 OFFCURVE",
"445 83 CURVE SMOOTH",
"540 83 OFFCURVE",
"619 167 OFFCURVE",
"619 332 CURVE SMOOTH",
"619 380 OFFCURVE",
"610 421 OFFCURVE",
"594 455 CURVE",
"630 470 OFFCURVE",
"663 478 OFFCURVE",
"685 478 CURVE SMOOTH",
"742 478 OFFCURVE",
"780 466 OFFCURVE",
"803 437 CURVE",
"712 390 OFFCURVE",
"634 301 OFFCURVE",
"634 200 CURVE SMOOTH",
"634 127 OFFCURVE",
"674 83 OFFCURVE",
"745 83 CURVE SMOOTH",
"839 83 OFFCURVE",
"919 167 OFFCURVE",
"919 332 CURVE SMOOTH",
"919 351 OFFCURVE",
"917 369 OFFCURVE",
"915 386 CURVE",
"1002 383 OFFCURVE",
"1047 346 OFFCURVE",
"1047 237 CURVE SMOOTH",
"1047 56 LINE SMOOTH",
"1047 -105 OFFCURVE",
"1158 -150 OFFCURVE",
"1216 -150 CURVE SMOOTH"
);
},
{
closed = 1;
nodes = (
"413 142 OFFCURVE",
"392 162 OFFCURVE",
"392 203 CURVE SMOOTH",
"392 291 OFFCURVE",
"449 363 OFFCURVE",
"515 411 CURVE",
"524 390 OFFCURVE",
"529 363 OFFCURVE",
"529 329 CURVE SMOOTH",
"529 184 OFFCURVE",
"487 142 OFFCURVE",
"444 142 CURVE SMOOTH"
);
},
{
closed = 1;
nodes = (
"711 142 OFFCURVE",
"692 162 OFFCURVE",
"692 200 CURVE SMOOTH",
"692 279 OFFCURVE",
"756 341 OFFCURVE",
"826 370 CURVE",
"828 357 OFFCURVE",
"829 344 OFFCURVE",
"829 329 CURVE SMOOTH",
"829 185 OFFCURVE",
"787 142 OFFCURVE",
"742 142 CURVE SMOOTH"
);
}
);
width = 1296;
}
);
unicode = 11738;
category = Letter;
},
{
glyphname = nine_ahom;
lastChange = "2019-03-13 13:49:46 +0000";
layers = (
{
layerId = UUID0;
paths = (
{
closed = 1;
nodes = (
"714 -222 OFFCURVE",
"813 -159 OFFCURVE",
"846 -131 CURVE SMOOTH",
"858 -121 OFFCURVE",
"863 -113 OFFCURVE",
"863 -101 CURVE SMOOTH",
"863 -85 OFFCURVE",
"850 -70 OFFCURVE",
"834 -70 CURVE SMOOTH",
"821 -70 OFFCURVE",
"806 -81 OFFCURVE",
"791 -92 CURVE SMOOTH",
"749 -122 OFFCURVE",
"662 -155 OFFCURVE",
"560 -155 CURVE SMOOTH",
"274 -155 OFFCURVE",
"174 27 OFFCURVE",
"174 262 CURVE SMOOTH",
"174 606 OFFCURVE",
"321 733 OFFCURVE",
"517 733 CURVE SMOOTH",
"689 733 OFFCURVE",
"750 629 OFFCURVE",
"750 518 CURVE SMOOTH",
"750 373 OFFCURVE",
"648 312 OFFCURVE",
"484 311 CURVE",
"484 315 LINE SMOOTH",
"484 367 OFFCURVE",
"480 470 OFFCURVE",
"373 470 CURVE SMOOTH",
"342 470 OFFCURVE",
"320 446 OFFCURVE",
"320 409 CURVE SMOOTH",
"320 397 OFFCURVE",
"325 387 OFFCURVE",
"336 387 CURVE SMOOTH",
"343 387 LINE SMOOTH",
"391 387 OFFCURVE",
"394 339 OFFCURVE",
"394 293 CURVE SMOOTH",
"394 135 LINE SMOOTH",
"394 48 OFFCURVE",
"444 -14 OFFCURVE",
"539 -14 CURVE SMOOTH",
"710 -14 OFFCURVE",
"793 92 OFFCURVE",
"814 122 CURVE SMOOTH",
"817 126 OFFCURVE",
"818 130 OFFCURVE",
"818 134 CURVE SMOOTH",
"818 148 OFFCURVE",
"803 159 OFFCURVE",
"791 159 CURVE SMOOTH",
"785 159 OFFCURVE",
"779 157 OFFCURVE",
"775 151 CURVE SMOOTH",
"722 75 OFFCURVE",
"615 38 OFFCURVE",
"562 38 CURVE SMOOTH",
"499 38 OFFCURVE",
"484 79 OFFCURVE",
"484 126 CURVE SMOOTH",
"484 247 LINE",
"698 253 OFFCURVE",
"844 336 OFFCURVE",
"844 518 CURVE SMOOTH",
"844 675 OFFCURVE",
"719 800 OFFCURVE",
"527 800 CURVE SMOOTH",
"261 800 OFFCURVE",
"80 563 OFFCURVE",
"80 268 CURVE SMOOTH",
"80 -9 OFFCURVE",
"274 -222 OFFCURVE",
"547 -222 CURVE SMOOTH"
);
}
);
width = 942;
}
);
unicode = 11739;
category = Letter;
},
{
glyphname = smallSectionSign_ahom;
lastChange = "2019-03-13 13:49:46 +0000";
layers = (
{
layerId = UUID0;
paths = (
{
closed = 1;
nodes = (
"194 -10 OFFCURVE",
"214 -2 OFFCURVE",
"214 15 CURVE SMOOTH",
"214 385 LINE SMOOTH",
"214 460 OFFCURVE",
"201 560 OFFCURVE",
"148 560 CURVE SMOOTH",
"115 560 OFFCURVE",
"60 513 OFFCURVE",
"60 489 CURVE SMOOTH",
"60 475 OFFCURVE",
"72 463 OFFCURVE",
"84 453 CURVE SMOOTH",
"89 449 OFFCURVE",
"94 444 OFFCURVE",
"100 438 CURVE SMOOTH",
"113 424 OFFCURVE",
"124 405 OFFCURVE",
"124 345 CURVE SMOOTH",
"124 15 LINE SMOOTH",
"124 -4 OFFCURVE",
"149 -10 OFFCURVE",
"170 -10 CURVE SMOOTH"
);
}
);
width = 334;
}
);
unicode = 1173C;
category = Letter;
},
{
glyphname = rulaiSign_ahom;
lastChange = "2019-03-13 13:49:46 +0000";
layers = (
{
layerId = UUID0;
paths = (
{
closed = 1;
nodes = (
"618 -175 OFFCURVE",
"858 57 OFFCURVE",
"858 364 CURVE SMOOTH",
"858 487 OFFCURVE",
"785 560 OFFCURVE",
"679 560 CURVE SMOOTH",
"580 560 OFFCURVE",
"498 481 OFFCURVE",
"454 390 CURVE",
"436 480 OFFCURVE",
"373 560 OFFCURVE",
"301 560 CURVE SMOOTH",
"280 560 OFFCURVE",
"255 523 OFFCURVE",
"255 499 CURVE SMOOTH",
"255 487 OFFCURVE",
"261 481 OFFCURVE",
"271 477 CURVE SMOOTH",
"332 453 OFFCURVE",
"369 411 OFFCURVE",
"369 336 CURVE SMOOTH",
"369 195 LINE SMOOTH",
"369 91 OFFCURVE",
"396 -14 OFFCURVE",
"535 -14 CURVE SMOOTH",
"578 -14 OFFCURVE",
"643 5 OFFCURVE",
"696 49 CURVE",
"701 66 LINE",
"627 -52 OFFCURVE",
"538 -98 OFFCURVE",
"436 -98 CURVE SMOOTH",
"248 -98 OFFCURVE",
"174 97 OFFCURVE",
"174 311 CURVE SMOOTH",
"174 676 OFFCURVE",
"341 783 OFFCURVE",
"550 783 CURVE SMOOTH",
"678 783 OFFCURVE",
"748 763 OFFCURVE",
"785 750 CURVE SMOOTH",
"799 745 OFFCURVE",
"810 743 OFFCURVE",
"820 743 CURVE SMOOTH",
"833 743 OFFCURVE",
"848 752 OFFCURVE",
"848 770 CURVE SMOOTH",
"848 786 OFFCURVE",
"839 796 OFFCURVE",
"824 803 CURVE SMOOTH",
"766 829 OFFCURVE",
"665 850 OFFCURVE",
"552 850 CURVE SMOOTH",
"302 850 OFFCURVE",
"80 700 OFFCURVE",
"80 311 CURVE SMOOTH",
"80 50 OFFCURVE",
"183 -175 OFFCURVE",
"441 -175 CURVE SMOOTH"
);
},
{
closed = 1;
nodes = (
"480 48 OFFCURVE",
"459 82 OFFCURVE",
"459 175 CURVE SMOOTH",
"459 268 LINE",
"500 462 OFFCURVE",
"620 480 OFFCURVE",
"651 480 CURVE SMOOTH",
"732 480 OFFCURVE",
"764 405 OFFCURVE",
"764 352 CURVE SMOOTH",
"764 181 OFFCURVE",
"670 48 OFFCURVE",
"544 48 CURVE SMOOTH"
);
}
);
width = 938;
}
);
unicode = 1173E;
category = Letter;
},
{
glyphname = viSymbol_ahom;
lastChange = "2019-03-13 13:49:46 +0000";
layers = (
{
layerId = UUID0;
paths = (
{
closed = 1;
nodes = (
"532 -363 OFFCURVE",
"552 -352 OFFCURVE",
"552 -325 CURVE SMOOTH",
"552 -319 OFFCURVE",
"550 -315 OFFCURVE",
"547 -312 CURVE SMOOTH",
"546 -311 OFFCURVE",
"540 -309 OFFCURVE",
"532 -307 CURVE SMOOTH",
"492 -297 OFFCURVE",
"394 -263 OFFCURVE",
"394 -200 CURVE SMOOTH",
"394 -159 OFFCURVE",
"420 -134 OFFCURVE",
"477 -96 CURVE SMOOTH",
"528 -62 OFFCURVE",
"560 -29 OFFCURVE",
"566 0 CURVE",
"572 -6 OFFCURVE",
"574 -17 OFFCURVE",
"574 -24 CURVE SMOOTH",
"574 -43 OFFCURVE",
"570 -63 OFFCURVE",
"566 -82 CURVE SMOOTH",
"562 -103 OFFCURVE",
"558 -124 OFFCURVE",
"558 -145 CURVE SMOOTH",
"558 -240 OFFCURVE",
"620 -296 OFFCURVE",
"731 -296 CURVE SMOOTH",
"791 -296 OFFCURVE",
"873 -274 OFFCURVE",
"873 -252 CURVE SMOOTH",
"873 -232 OFFCURVE",
"865 -210 OFFCURVE",
"852 -210 CURVE SMOOTH",
"844 -210 OFFCURVE",
"834 -213 OFFCURVE",
"821 -218 CURVE SMOOTH",
"799 -226 OFFCURVE",
"769 -236 OFFCURVE",
"725 -236 CURVE SMOOTH",
"682 -236 OFFCURVE",
"636 -212 OFFCURVE",
"636 -159 CURVE SMOOTH",
"636 -140 OFFCURVE",
"638 -119 OFFCURVE",
"641 -98 CURVE SMOOTH",
"644 -76 OFFCURVE",
"646 -53 OFFCURVE",
"646 -32 CURVE SMOOTH",
"646 15 OFFCURVE",
"627 53 OFFCURVE",
"604 80 CURVE",
"604 438 LINE SMOOTH",
"604 478 OFFCURVE",
"599 495 OFFCURVE",
"580 520 CURVE",
"582 507 LINE",
"616 525 OFFCURVE",
"646 570 OFFCURVE",
"646 631 CURVE SMOOTH",
"646 653 OFFCURVE",
"644 676 OFFCURVE",
"641 698 CURVE SMOOTH",
"638 719 OFFCURVE",
"636 740 OFFCURVE",
"636 758 CURVE SMOOTH",
"636 805 OFFCURVE",
"668 835 OFFCURVE",
"731 835 CURVE SMOOTH",
"775 835 OFFCURVE",
"800 827 OFFCURVE",
"822 818 CURVE SMOOTH",
"834 813 OFFCURVE",
"844 809 OFFCURVE",
"852 809 CURVE SMOOTH",
"865 809 OFFCURVE",
"873 824 OFFCURVE",
"873 839 CURVE SMOOTH",
"873 863 OFFCURVE",
"822 895 OFFCURVE",
"731 895 CURVE SMOOTH",
"633 895 OFFCURVE",
"558 844 OFFCURVE",
"558 744 CURVE SMOOTH",
"558 722 OFFCURVE",
"562 701 OFFCURVE",
"566 680 CURVE SMOOTH",
"570 661 OFFCURVE",
"574 642 OFFCURVE",
"574 623 CURVE SMOOTH",
"574 580 OFFCURVE",
"553 553 OFFCURVE",
"514 546 CURVE",
"527 532 LINE",
"528 539 OFFCURVE",
"528 545 OFFCURVE",
"528 551 CURVE SMOOTH",
"528 617 OFFCURVE",
"494 655 OFFCURVE",
"450 693 CURVE SMOOTH",
"406 731 OFFCURVE",
"384 755 OFFCURVE",
"384 792 CURVE SMOOTH",
"384 855 OFFCURVE",
"460 883 OFFCURVE",
"506 900 CURVE SMOOTH",
"530 909 OFFCURVE",
"542 914 OFFCURVE",
"542 930 CURVE SMOOTH",
"542 953 OFFCURVE",
"522 962 OFFCURVE",
"508 962 CURVE SMOOTH",
"503 962 OFFCURVE",
"499 962 OFFCURVE",
"494 961 CURVE SMOOTH",
"382 939 OFFCURVE",
"306 867 OFFCURVE",
"306 790 CURVE SMOOTH",
"306 722 OFFCURVE",
"351 680 OFFCURVE",
"393 642 CURVE SMOOTH",
"437 602 OFFCURVE",
"458 573 OFFCURVE",
"458 536 CURVE SMOOTH",
"458 498 OFFCURVE",
"437 461 OFFCURVE",
"405 411 CURVE SMOOTH",
"209 103 LINE",
"224 98 LINE",
"224 314 LINE SMOOTH",
"224 472 OFFCURVE",
"148 560 OFFCURVE",
"66 560 CURVE SMOOTH",
"45 560 OFFCURVE",
"23 533 OFFCURVE",
"23 509 CURVE SMOOTH",
"23 490 OFFCURVE",
"32 482 OFFCURVE",
"51 474 CURVE SMOOTH",
"112 448 OFFCURVE",
"134 408 OFFCURVE",
"134 299 CURVE SMOOTH",
"134 83 LINE SMOOTH",
"134 14 OFFCURVE",
"159 0 OFFCURVE",
"180 0 CURVE SMOOTH",
"201 0 OFFCURVE",
"216 8 OFFCURVE",
"236 40 CURVE SMOOTH",
"432 350 LINE SMOOTH",
"478 423 OFFCURVE",
"492 445 OFFCURVE",
"502 445 CURVE SMOOTH",
"514 445 OFFCURVE",
"514 418 OFFCURVE",
"514 374 CURVE SMOOTH",
"514 84 LINE SMOOTH",
"514 32 OFFCURVE",
"485 -5 OFFCURVE",
"426 -46 CURVE SMOOTH",
"372 -83 OFFCURVE",
"316 -125 OFFCURVE",
"316 -194 CURVE SMOOTH",
"316 -268 OFFCURVE",
"383 -336 OFFCURVE",
"504 -362 CURVE SMOOTH",
"509 -363 OFFCURVE",
"513 -363 OFFCURVE",
"518 -363 CURVE SMOOTH"
);
}
);
width = 917;
}
);
unicode = 1173F;
category = Letter;
},
{
glyphname = t_ja_ahom;
lastChange = "2019-03-13 13:52:28 +0000";
layers = (
{
layerId = UUID0;
paths = (
{
closed = 1;
nodes = (
"325 -14 OFFCURVE",
"382 80 OFFCURVE",
"409 180 CURVE",
"423 66 LINE SMOOTH",
"430 11 OFFCURVE",
"451 10 OFFCURVE",
"471 10 CURVE SMOOTH",
"484 10 OFFCURVE",
"505 20 OFFCURVE",
"514 54 CURVE SMOOTH",
"554 205 LINE SMOOTH",
"576 289 OFFCURVE",
"599 374 OFFCURVE",
"611 374 CURVE SMOOTH",
"621 374 OFFCURVE",
"626 345 OFFCURVE",
"633 302 CURVE SMOOTH",
"653 183 LINE SMOOTH",
"670 80 OFFCURVE",
"701 -14 OFFCURVE",
"812 -14 CURVE SMOOTH",
"937 -14 OFFCURVE",
"1062 143 OFFCURVE",
"1062 345 CURVE SMOOTH",
"1062 502 OFFCURVE",
"983 560 OFFCURVE",
"911 560 CURVE SMOOTH",
"875 560 OFFCURVE",
"851 536 OFFCURVE",
"851 503 CURVE SMOOTH",
"851 477 OFFCURVE",
"868 448 OFFCURVE",
"908 431 CURVE SMOOTH",
"944 416 OFFCURVE",
"983 397 OFFCURVE",
"983 324 CURVE SMOOTH",
"983 176 OFFCURVE",
"914 48 OFFCURVE",
"830 48 CURVE SMOOTH",
"783 48 OFFCURVE",
"767 80 OFFCURVE",
"750 177 CURVE SMOOTH",
"704 435 LINE SMOOTH",
"684 545 OFFCURVE",
"659 560 OFFCURVE",
"629 560 CURVE SMOOTH",
"603 560 OFFCURVE",
"583 522 OFFCURVE",
"556 428 CURVE SMOOTH",
"478 160 LINE",
"485 150 LINE",
"479 313 LINE SMOOTH",
"474 453 OFFCURVE",
"434 560 OFFCURVE",
"315 560 CURVE SMOOTH",
"200 560 OFFCURVE",
"60 364 OFFCURVE",
"60 169 CURVE SMOOTH",
"60 33 OFFCURVE",
"133 -14 OFFCURVE",
"213 -14 CURVE SMOOTH"
);
},
{
closed = 1;
nodes = (
"177 68 OFFCURVE",
"154 124 OFFCURVE",
"154 196 CURVE SMOOTH",
"154 382 OFFCURVE",
"240 483 OFFCURVE",
"309 483 CURVE SMOOTH",
"357 483 OFFCURVE",
"393 450 OFFCURVE",
"393 347 CURVE SMOOTH",
"393 317 LINE",
"356 106 OFFCURVE",
"275 68 OFFCURVE",
"234 68 CURVE SMOOTH"
);
}
);
width = 1142;
}
);
category = Letter;
},
{
glyphname = i_u_ahom;
lastChange = "2019-03-13 13:49:46 +0000";
layers = (
{
layerId = UUID0;
paths = (
{
closed = 1;
nodes = (
"277 -140 OFFCURVE",
"375 -114 OFFCURVE",
"375 -75 CURVE SMOOTH",
"375 -61 OFFCURVE",
"363 -52 OFFCURVE",
"350 -52 CURVE SMOOTH",
"341 -52 OFFCURVE",
"335 -54 OFFCURVE",
"321 -60 CURVE SMOOTH",
"295 -71 OFFCURVE",
"263 -78 OFFCURVE",
"219 -78 CURVE SMOOTH",
"157 -78 OFFCURVE",
"115 -51 OFFCURVE",
"115 60 CURVE SMOOTH",
"115 516 LINE",
"179 558 OFFCURVE",
"231 648 OFFCURVE",
"231 770 CURVE SMOOTH",
"231 880 OFFCURVE",
"186 968 OFFCURVE",
"98 968 CURVE SMOOTH",
"-27 968 OFFCURVE",
"-100 807 OFFCURVE",
"-100 701 CURVE SMOOTH",
"-100 561 OFFCURVE",
"-47 494 OFFCURVE",
"25 490 CURVE",
"25 56 LINE SMOOTH",
"25 -105 OFFCURVE",
"136 -140 OFFCURVE",
"228 -140 CURVE SMOOTH"
);
},
{
closed = 1;
nodes = (
"8 554 OFFCURVE",
"-18 607 OFFCURVE",
"-18 691 CURVE SMOOTH",
"-18 859 OFFCURVE",
"28 904 OFFCURVE",
"83 904 CURVE SMOOTH",
"137 904 OFFCURVE",
"149 839 OFFCURVE",
"149 772 CURVE SMOOTH",
"149 656 OFFCURVE",
"135 554 OFFCURVE",
"53 554 CURVE SMOOTH"
);
}
);
width = 275;
}
);
category = Letter;
},
{
glyphname = o_u_ahom;
lastChange = "2019-03-13 13:52:07 +0000";
layers = (
{
layerId = UUID0;
paths = (
{
closed = 1;
nodes = (
"6 -672 OFFCURVE",
"104 -646 OFFCURVE",
"104 -607 CURVE SMOOTH",
"104 -593 OFFCURVE",
"92 -584 OFFCURVE",
"75 -584 CURVE SMOOTH",
"70 -584 OFFCURVE",
"65 -585 OFFCURVE",
"61 -587 CURVE SMOOTH",
"24 -604 OFFCURVE",
"-8 -610 OFFCURVE",
"-52 -610 CURVE SMOOTH",
"-94 -610 OFFCURVE",
"-136 -593 OFFCURVE",
"-136 -482 CURVE SMOOTH",
"-136 -327 LINE",
"-86 -301 OFFCURVE",
"-50 -250 OFFCURVE",
"-50 -180 CURVE SMOOTH",
"-50 -99 OFFCURVE",
"-95 -44 OFFCURVE",
"-179 -44 CURVE SMOOTH",
"-275 -44 OFFCURVE",
"-334 -122 OFFCURVE",
"-334 -207 CURVE SMOOTH",
"-334 -299 OFFCURVE",
"-282 -339 OFFCURVE",
"-226 -344 CURVE",
"-226 -486 LINE SMOOTH",
"-226 -647 OFFCURVE",
"-135 -672 OFFCURVE",
"-43 -672 CURVE SMOOTH"
);
},
{
closed = 1;
nodes = (
"-244 -300 OFFCURVE",
"-259 -257 OFFCURVE",
"-259 -195 CURVE SMOOTH",
"-259 -113 OFFCURVE",
"-227 -89 OFFCURVE",
"-181 -89 CURVE SMOOTH",
"-136 -89 OFFCURVE",
"-125 -129 OFFCURVE",
"-125 -178 CURVE SMOOTH",
"-125 -240 OFFCURVE",
"-138 -300 OFFCURVE",
"-198 -300 CURVE SMOOTH"
);
}
);
width = 0;
}
);
category = Mark;
},
{
glyphname = khra_ahom;
lastChange = "2019-03-13 13:52:28 +0000";
layers = (
{
layerId = UUID0;
paths = (
{
closed = 1;
nodes = (
"204 -10 OFFCURVE",
"224 -2 OFFCURVE",
"224 15 CURVE SMOOTH",
"224 20 LINE",
"249 86 OFFCURVE",
"296 198 OFFCURVE",
"377 284 CURVE",
"362 278 LINE",
"364 161 OFFCURVE",
"407 20 OFFCURVE",
"549 20 CURVE SMOOTH",
"649 20 OFFCURVE",
"729 104 OFFCURVE",
"729 242 CURVE SMOOTH",
"729 377 OFFCURVE",
"626 428 OFFCURVE",
"549 428 CURVE SMOOTH",
"518 428 OFFCURVE",
"490 423 OFFCURVE",
"463 413 CURVE",
"486 506 OFFCURVE",
"544 534 OFFCURVE",
"608 534 CURVE SMOOTH",
"658 534 OFFCURVE",
"686 522 OFFCURVE",
"705 510 CURVE SMOOTH",
"715 504 OFFCURVE",
"724 499 OFFCURVE",
"733 499 CURVE SMOOTH",
"747 499 OFFCURVE",
"764 514 OFFCURVE",
"764 534 CURVE SMOOTH",
"764 560 OFFCURVE",
"699 600 OFFCURVE",
"608 600 CURVE SMOOTH",
"490 600 OFFCURVE",
"391 519 OFFCURVE",
"368 358 CURVE",
"312 312 OFFCURVE",
"264 248 OFFCURVE",
"224 181 CURVE",
"224 365 LINE SMOOTH",
"224 516 OFFCURVE",
"139 560 OFFCURVE",
"73 560 CURVE SMOOTH",
"38 560 OFFCURVE",
"20 523 OFFCURVE",
"20 499 CURVE SMOOTH",
"20 487 OFFCURVE",
"25 477 OFFCURVE",
"36 477 CURVE SMOOTH",
"53 477 LINE SMOOTH",
"104 477 OFFCURVE",
"134 446 OFFCURVE",
"134 362 CURVE SMOOTH",
"134 15 LINE SMOOTH",
"134 -4 OFFCURVE",
"159 -10 OFFCURVE",
"180 -10 CURVE SMOOTH"
);
},
{
closed = 1;
nodes = (
"480 84 OFFCURVE",
"453 154 OFFCURVE",
"453 315 CURVE SMOOTH",
"453 332 LINE",
"476 344 OFFCURVE",
"501 351 OFFCURVE",
"526 351 CURVE SMOOTH",
"568 351 OFFCURVE",
"635 332 OFFCURVE",
"635 228 CURVE SMOOTH",
"635 129 OFFCURVE",
"590 84 OFFCURVE",
"550 84 CURVE SMOOTH"
);
}
);
width = 844;
}
);
category = Letter;
},
{
glyphname = phra_ahom;
lastChange = "2019-03-13 13:52:28 +0000";
layers = (
{
layerId = UUID0;
paths = (
{
closed = 1;
nodes = (
"377 -14 OFFCURVE",
"454 35 OFFCURVE",
"508 112 CURVE",
"530 39 OFFCURVE",
"583 -12 OFFCURVE",
"671 -12 CURVE SMOOTH",
"821 -12 OFFCURVE",
"959 161 OFFCURVE",
"959 344 CURVE SMOOTH",
"959 463 OFFCURVE",
"905 560 OFFCURVE",
"784 560 CURVE SMOOTH",
"689 560 OFFCURVE",
"608 500 OFFCURVE",
"543 392 CURVE",
"566 408 LINE",
"565 451 OFFCURVE",
"551 502 OFFCURVE",
"521 548 CURVE SMOOTH",
"494 589 OFFCURVE",
"477 618 OFFCURVE",
"477 660 CURVE SMOOTH",
"477 723 OFFCURVE",
"515 753 OFFCURVE",
"560 753 CURVE SMOOTH",
"577 753 OFFCURVE",
"591 750 OFFCURVE",
"604 746 CURVE SMOOTH",
"613 743 OFFCURVE",
"622 742 OFFCURVE",
"630 742 CURVE SMOOTH",
"646 742 OFFCURVE",
"658 751 OFFCURVE",
"658 774 CURVE SMOOTH",
"658 798 OFFCURVE",
"624 813 OFFCURVE",
"558 813 CURVE SMOOTH",
"467 813 OFFCURVE",
"398 748 OFFCURVE",
"398 658 CURVE SMOOTH",
"398 603 OFFCURVE",
"419 567 OFFCURVE",
"443 528 CURVE SMOOTH",
"473 480 OFFCURVE",
"504 430 OFFCURVE",
"504 324 CURVE SMOOTH",
"504 176 OFFCURVE",
"425 48 OFFCURVE",
"317 48 CURVE SMOOTH",
"239 48 OFFCURVE",
"224 90 OFFCURVE",
"224 155 CURVE SMOOTH",
"224 385 LINE SMOOTH",
"224 507 OFFCURVE",
"150 560 OFFCURVE",
"73 560 CURVE SMOOTH",
"38 560 OFFCURVE",
"20 523 OFFCURVE",
"20 499 CURVE SMOOTH",
"20 487 OFFCURVE",
"25 477 OFFCURVE",
"36 477 CURVE SMOOTH",
"53 477 LINE SMOOTH",
"96 477 OFFCURVE",
"134 452 OFFCURVE",
"134 370 CURVE SMOOTH",
"134 195 LINE SMOOTH",
"134 91 OFFCURVE",
"156 -14 OFFCURVE",
"298 -14 CURVE SMOOTH"
);
},
{
closed = 1;
nodes = (
"630 65 OFFCURVE",
"590 122 OFFCURVE",
"590 224 CURVE SMOOTH",
"590 378 OFFCURVE",
"633 480 OFFCURVE",
"748 480 CURVE SMOOTH",
"825 480 OFFCURVE",
"865 426 OFFCURVE",
"865 324 CURVE SMOOTH",
"865 186 OFFCURVE",
"827 65 OFFCURVE",
"700 65 CURVE SMOOTH"
);
}
